<mxfile host="Electron" modified="2024-04-11T07:18:40.965Z" agent="Mozilla/5.0 (Windows NT 10.0; Win64; x64) AppleWebKit/537.36 (KHTML, like Gecko) draw.io/21.2.8 Chrome/112.0.5615.165 Electron/24.2.0 Safari/537.36" etag="EW74Dm_wmtzn6TlZEYYt" version="21.2.8" type="device">
  <diagram name="Page-1" id="2XWkQP5S-hDbL94sL5Vg">
    <mxGraphModel dx="2058" dy="1180" grid="1" gridSize="10" guides="1" tooltips="1" connect="1" arrows="1" fold="1" page="1" pageScale="1" pageWidth="3300" pageHeight="4681" background="#999999" math="0" shadow="0">
      <root>
        <mxCell id="0" />
        <mxCell id="1" parent="0" />
        <mxCell id="HT3JYzme7oOu0LbbBRVU-1" value="C++" style="rounded=0;whiteSpace=wrap;html=1;fillColor=#dae8fc;strokeColor=#6c8ebf;fontSize=52;" parent="1" vertex="1">
          <mxGeometry x="1220" y="370" width="370" height="400" as="geometry" />
        </mxCell>
        <mxCell id="HT3JYzme7oOu0LbbBRVU-2" value="QML" style="rounded=0;whiteSpace=wrap;html=1;fillColor=#f8cecc;strokeColor=#b85450;fontSize=52;" parent="1" vertex="1">
          <mxGeometry x="1610" y="370" width="370" height="400" as="geometry" />
        </mxCell>
        <mxCell id="UkHZHQNF0xRfP7YE2zs1-1" value="Time" style="rounded=0;whiteSpace=wrap;html=1;fontSize=30;fillColor=#dae8fc;strokeColor=#6c8ebf;" vertex="1" parent="1">
          <mxGeometry x="1260" y="80" width="680" height="140" as="geometry" />
        </mxCell>
        <mxCell id="UkHZHQNF0xRfP7YE2zs1-2" value="" style="shape=image;verticalLabelPosition=bottom;labelBackgroundColor=default;verticalAlign=top;aspect=fixed;imageAspect=0;image=data:image/png,iVBORw0KGgoAAAANSUhEUgAAA4AAAAIeCAYAAADqL2HQAAAAAXNSR0IArs4c6QAAAARnQU1BAACxjwv8YQUAAAAJcEhZcwAADsMAAA7DAcdvqGQAALC9SURBVHhe7N17cBTnne//bzbKml1blgUyWOI2srEIeNdekDDKciwCiOPC4KBkVzZy/oHapcpoa8HBS4JdrsKu8jFkibHNOQHXj01BnbNrKbCboNiY43DxMQ6xMAzEJIYgXyQumgkYJMsyG7zFbn7P0/30TPfcZzSj27xfVQM9renp7pnpnv7Mc/vS1+fW/kFyqOvKZTMFAAAAABhIf2T+BwAAAAAMcwRAAAAAAMgTBEAAAAAAyBMEQAAAAADIEwRAAAAAAMgTBEAAAAAAyBMEQAAAAADIEwRAAAAAAMgTBEAAAAAAyBMEQAAAAADIEwRAAAAAAMgTBEAAAAAAyBMEQAAAAADIEwRAAAAAAMgTBEAAAAAAyBMEQAAAAADIEwRAAAAAAMgTBEAAAAAAyBMEQAAAAADIEwRAAAAAAMgTBEAAAAAAyBMEQAAAAADIEwRAAAAAAMgTBEAAAAAAyBMEQAAAAADIEwRAAAAAAMgTBEAAAAAAyBMEQAAAAADIEwRAAAAAAMgTX/r63No/mOmc6Lpy2Uxl0czHZczSSnMn7NqOR6TniLmDYaJIHqudI8sKzd0IHWfelMWnesw9DE8+uenp5+TGMX7pWfG8XDNzk8rSeWKEWmfR3aVy/eRWubL1bTM3nzjHYK9sP3hAXuzT4RY+njvOHFPH7gUzHwAA9JchWQJYUFpmptz88gXhzzKlaJxsrp0nLd+sk/ecW+1MeWx8kXnE4DBUthMDbbx8eYz672KnXLdnpCQr54nxS+RGFf60gjFjpcCaGjymjJ9qHUOh4+eb82Tz1HEyxfw9nkyX67OisTLH/JjjmzxWHrQnBxEdUPV5aGruXwsAAAbIkAyA13c/LhdXPGJuT8rVi2pmmheHw5N98dI8t0pmFxaKz8y1FJbKsqo5g+TCZqhsJwaF8SZ4pXmMZ+U8cb5VvtDLSVCu/ap1UJ1jHqyeJ81VFdYxFFYosydXSXPtzLjhKtPlsqKnU97stSc7znTKq/YkAADoR8OgDWBmpQPDT7hqVULqom/SgBawpbudPfLi/t1yz0+d2zF5y3oA8kVB5QwrAF473pfql5meJzrk86d1gHxcenZ3mHkDb8rUefJsqT6IeuWtM2/KEuf4OKiODx2wCkvl2Rg/omS6XPaEj2eqfwIAMDCGfgCcea+MUP/17eJw6JsytcobqnqD8tRBc3GnbkuOBaVDz/vpEXl1AJvMDZXtHJImVsua9Y3SvKNRNtWXmJlDX0GproIZlP8M2PczMqzOE+NkxWT7IHrr2AFZeapHTlv3lJ4LsnK/+ZGksEJWjLfmGpkul08K5Xb3+QkAgGFoUHQCUzD+PhmxqE5uuLs01Mbm+smfSc/W5qS/1hfUPS+j7he5+tzj8vl5MzMhn4xY8fdWux73uq6+1izXynSnEWUxn6tg5hK5ccEMGTHGbg+kL0ivnzxqL5dgvZkul55xsvmbVTLb3JPeNlmy/1T44i6e8TPlvSqzXcFjck9rrzxYXSV/W+pUy+yVjuAZWdt6wftcmS6X6XZ6eJ8jtU5giuTBqV+Vvy27SXyuam86aL555rfy4vl4yzvLlarlzCwld8v1Tc2qRmmcZu5It7Ssa5Kms+Zu1pgOWS5ulYtb3zaf72+oz7f91+sX/XL1R89Hf7bHL5FRT35DCk7ay0WL19GLd/71VNcXIeXzRJyOY+Tiz+TK08nPR1pfzmcpcY6/RMeP8xjr+DQlbeks53mMU2pvdwLzhg6SMyaHq5D26tLEY7Iy6nOduLQ/pWO3aJw8NmWyzAmdW+zj6J+OJvuBqEimjP+qbJjsPubjn89aJnuP1bjcrycAAEOUpwTwxhtvlLv//M/j3vTfs0uHMXVh9uQKTyDTCu7+hoza+rzclOSXaLt0ICDXUwlT+iJ063NWj36R6yp68nkpmq4v/GI8l7ooHLVUX3TqdTnUczjLzfS0YgvLdLl0jR8bDlXKW2fSDVVK6WRp+eYcq3pYeKvUdGmSdkHpLJeN7UyLCmLVuqMLtX3WBZ73Cs9n2hu2VI8zc1yKptr7FePC0FnO6rAmsjptpssNFeOr5QYVvq7LWLlJH7vW59v8TSkYU2l9tqOO2zK7Hd/1YLwDNV4VTTP/ZKcUPP1K6uuLkOp5InbHMWq7U2r/1/fzWSqmFN5k/d8R6Ix//Hymwo7+vzTc0cqDY+3zUErL6SrY1gyv26fMC7XdDVHTs/XnOtZx1Ae6uup7al3LPOcW+zh6dm6dtEyNcxBZnUvNkWYVZL3HvDkvfXNe1PGXUvgDAGCY8ATAq1evWv//+Z/fFXXTnL9nh/3Lvg5julTs2o4n5Yqrw4aeN/zqgqtUbvybJZ4LKa/75Ia71X8n302ha/j71IXiN+znuvgz6XnOWdcjcmWHva4R+rmiLkDVdi7QwdDeRnenEqHllv59jAu7TJdLn3NhZwvKvlTCcBTvRZaHuuD623gXW2ksl53tTIcuIkh+ZacvCjd73ocieWxGRfz9cpgL8bBMl8uOQ7uPiz9oTwf27MtB6Z9igpwONDeq48Vz3D63Va5ZHaao43bRfXoixAlW14Nx2tHF6+jFma/XNybiPJFgfV6pnye8HceomzpWrfnxtjskG+ez1Ey62f5Mn+1NUATW85nYb/9Ncod1CBbJHeZjl3g5p5MWZzk3FfRUGOsItrmqbb8pT50xvbpEHUeR7Xft2xLn8YmMnynNVnVVu3Qx1FZRL6+riau/+CZXxfghRYU/K6Cqyd6gbD/2pmvdelv1soVy+832oy3nj7geY6rB6hLQ0DzXjdI/AMAwENUG8OSvfy2//vX75p5N39fzs6mg7u/VBZ2a0FWrdAcLRzpcF34dcm3383JFXeD1/ChBtSlzcRi/VCFsxIoVVhsg0VXQnvZWv7x+RK3LXOjF7STi4lG5qrYxTG2vXk5f3CWqVpbpcgOiN3zBdLDNushy+CZ/NUHvgJkul3uvntbbYy4iXW0NrU4vzGO02WPdpRfedkAdutqXs5y6iFxyrM3qMEOPY+YdEy3T5bLkbKtsfGKLLFm6RVbvysH4m0qohCzWcXv+bXW8/sy+HzFkQtJ2fHFKCJ0OYNJdn0ca54lI9v4mb3+YlfNZSpwg1ysff2bNiEP9PWbOSrZcYla1zdZTruqXPfLqqQOhUOc9jjJVJI9Ntn8sstsqeqtsnlaBbbEKgfp4mzPWmwCnTJ1s1zKwqrAeiahurbdVLXvwTVk5qM67AAD0r5idwLhDYC7Cn/5F/sb79Re8X3oStatRF3gJ2/aELhrdkSMGaywv9b++OEsykHN0JxHqQk6XMoz5hhStuE8Kokrs1MVdzG3MdLmBoy+2QhdMPadkreeX+lglArZMl+sXansW/1RdRHaKTBo70x53UI/zpUsJzEMsN93s6vnQe/GsSwhbatWyU8fJg2pfTp8/JSv3614MI1NcpssNHU6QuxovyJyP9QOKTwqscHQ07md+hFX9OvpYzmx9EVI9T0TxyYi/UOtPsN22LJ3PBr1eebMz9mf3dKddKuc9jjLkjBWoQtzWeK+Xet/1Dzg+9d6G11ck95fZpYbbjyaoXt4zdI8/AACyIW4voDr07T9wMAfhT3GqdaVUdTM++6Ix+cDOTilConY8iX7pv7b1Sek5GZSCu1fIqCdfkTFbn5eiOhXqzN/jyXS5weJ07+dmSouoNpVApsvlhNUeyA58ul2eNe6gq5Quth558WhESWahWnayeo65c+yBs3X7xqLIZJvpckOFCXKptrl1mHaD8YdgcJ438vjLcH0RUj1PREtx6Igsnc9S0yMfWYdXsuPKWxodluPjMU7bwbTcbKqVF1ZIc2ig+shbxA84FmefP5ePyHgAAMQVNwBqFy9eMlNZFqe6V3qcUoXkJQBOKcIX/nglAOaX/rgXmh0qzD0uF58Lt+UZcb8KdVagS9TiK9Pl0vPhZ+4St1KZn4V2hdEyrToWXq5/ttPN1R4oXbrk8OCb8lTQdIoRyeqIYo5sHh8R5jJdbkhwOmRJEHScMOQ+LpMe707Qiixpy3B9HqmfJ6KkOnREVs5nqXOOo4mFCT5DRTfLRGvCCUNOcEy2nCl9I0QBADBsJQyAg1uKv86nJMXnOm/a8uiOHawOKHSgS6Ejl0yXS1Go+pUxe3KcgZzTLHnydtqSunjL5Wo74wm1BzJ027unVDhzOnd4ynSYEpPahik9PfJq6wFZHGrDp5a3OpEImz3ZXQVNyXS5ocAEokRBZ8Qiu6Mld2hK1gFMgXneqOMvhbZ7sdbnlfl5ItX2f/3NKWH3Vn/0mqKOQesnpmCnvGrNEXlVHX9aSsv19sqH1pwUOaV26S4Xi9MTqacNbZxbzOEsslDtPBslmQAADFIDEwAD9sVYwf1/ZV/4xTI+SVXJFC5GvUrly6b/Ci/ddbvpICbqIvE+u/2eueehO6DYqzuOifW8mS6XoZ5T8k/uMKOrTllVDc19ZYoe62runPhdpyuzJ4eX0Y//W3eO6w3KG3FKBFJeLkvb6WZ1MhN6qApf8RbTY4eduiCvqnB2Wj9u/FTvdnro3jznWN3Ft1RPVc+vn1Qtd14tf+q3EfvgvlDMdLksyfFA8MmCnB72pEi3tY2obpmoAxhrfD4z7l7ksRzqACaOgjjr80j7PBFmb3cK1U+zcT5Lh2n/Fn/AdteA752uXivTWS7mEC3xqo+GO21JOMREqpyeSEsnpzlcygXZZx1jhbJsRpwflzT9I42ZjG+A2y4DAJBDAxMAz7fKF1b37ZVS9PTjMmK8qzqkmtZjaY15ckVK1SQL/qJaLW/u6GVjjK13PWhfeY9YqtdlTVr0INZFVtft9v2oC9C6Ohmh2+89bY/Z57mAUxd0RdYwD9EyXa4vXm319mppVzUMt5mxxsRSs32TE4Qr1zLO4x0Jx+xLY7m+b6dzkedwLz9HNowNL+Npi6jXY9ahH9dcFX+4hilTq8zg1YXiK61Qz2/a75lln3UHR1cJS6bLZUtN3XSpNOsoWzhfGuw6gFljByJ9HL0iozxtWc0xa4LctR3ugdwd9lANoWX0caDH9bu/VK6dtN/Q2B3AqP/vfy7m+pzgGHt9XqmcJ7yc9oeVcqPrPFQw8z7POcSSxfNZai7IVqfXzap5slkdJ6FAY7V5Ne3jojpRuSArrd4z010ubHaVHn9vnGe58GDv+keWbNQb7ZEXz+jtVEFurt5OtT7PqaBIHpw6U1q+OTOqh2G711/F/Lj0mKeqtf7hx/6BqTnumIXeEOn+cUoHxweHZNVtAAC8vvT1ubV/MNM50XUlTnf0elB2Z1y+GK6f/Jn0bE3UZbq6gNxqSu7cdE+fUT3xxXmsdtEvPb8qk6L7Ra7GGJbBKqGweviL4+RWq2fRyO3MdLk+0RdxM5K0ebO6RzehTF0MvacCVzJW1+/uC7tMl3Oku51R1PIxO4FQPMsVuS5OI/XKW+pCT49rZt91LacvaqdMtgagTqg3KE/tPxIOcpkulyU1qxqlcZq5I93Ssq4pi2MB2uPc3agu8nVbVjscRbv+xpNyZXdECeHMx0Ph0CtoHXPXKvWxEnn8Oevzq3BX6Rn8PUyPt/c/rSEX4kvnPOEV7xi+tuMRtU5zx9Hn81n6HqyeJ8/G+6wl+Iylv5xzHPVKR2+8TpR6ZfvBAykNb6IHeNdj/MU9PxjO4+JS27r96JHodRZNVSEv0XicSbY14fLq9flp9o9dAAD605d95bc/baZz4ve//3czFeGz38jv9/jlPydMVReTheGiSBXIrv7r/5Ke3b+Q/zKzYjsnX5z8ihRUTJYCM8DxdbXs7/fuk2udn9ozQvRjL8mX1AX6H6t1WS6qi8d/XS89/7JX/uur98ufTgrI7195J+oC7b9++3O5apb9I9d2XlfL/4defvfJmBd1mS7XJ198Jns//q28dfWP5NbCPxbfDTeYP6gwpi6WfvrrY7L0VxckFMnVtq2wuk3X9EXRL+VXI0pkWqFZTl9gqWUei+wNItPlHOluZxS1fPBzGTGiMLxOpaO3V94LBOTYJ5+ZZb+Q1o+D0nlLicwNPU5dxAZ/LY8efU/+z+U/kQXlo+QWPfs/rsi/fvyJvZzavtYL7fKyWUex3CC3hFcT2sbv/+ojOWzmWTJdLkvO/u7LUv7VUtFvTWDPq/L8L+Mcexn5c/mTh2dIwcf/LJ/84KdRx60OOL0/ekZ634089pTOd9Tj/1KFOOczo469N/5Zep7fJtc+E/njOUvV39oijj97fXL4f0n3ywci1qdC6Mk31fo2ydVTMdbnkc55wuu/fttmrTdyu68eOBd9burz+Sx9beqz9tbVIqkqLHR9zszn+9DpuJ8xe7nIY0+PlflrWXsk1nIjpPr2cpn2H2fl0f1vy79GrFMPDP+Do+/K/46f5TxuvfV2+euSG+TTKx3S/MkXZm60y5+4jiV1/FrHqaaO87c67G19LdbiX3wizb9Vx/0fjZDbb4jx2ux/L/ZyDr28Wu/UEhV2o85Nv5X//VmihQEAGPwGrgQQA89Tkpf6L/gZL4ehy5RwSawSPgy4UGmZ7jil1dXubxBKtQQQAADkRuiHauS7TMcHy/G4YhgUQmNppj2YOvrD6VNn7La1pVXSUu1qozcITbrZKVEFAAADgQAIIKlEPXliMLA7eNHx3KdCYHgA9Xlp9qSZRUXjrE5Y3GFUd8Jid4bUK292UvoHAMBAIAACSMLpETOFIREwcM4fkcUHj8n2oN1D6ECbMnayLKvSw6I4YdTu5VfrCJ6h2jgAAAOEAAggicwHU0c/67kgL7YecA2WPnDtc093HpOnVBj1VBrWHbgce1MWD/J2igAADGd0AgMAAAAAeYISQAAAAADIEwRAAAAAAMgTBEAAAAAAyBMEQAAAAADIEwRAAAAAAMgTBEAAAAAAyBMEQAAAAADIEwRAAAAAAMgTg2gg+BKpqZ8hddPLpazUzJJ22bJ0rxwy9wAAAAAAmRs0JYA1qx6SxoXu8AcAAAAAyKZBUgJYIg3rH5LFKvz5t+2UjYdTLTUEAAAAAKRqcLUBDB6XXYQ/AAAAAMgJOoEBAAAAgDwxSALgZen8nZkEAAAAAOTE4CoBLC2WCWYSAAAAAJBdVAEFAAAAgDwxCAJgifjqF0jdNDUZ7JZz9kwAAAAAQJYN3DAQE6tl0zPTpczclWC7tLy8V5rOmvsAAAAAgKwaNFVAA+rWaU8CAAAAAHJgEAwEXyI19fOlcWGxNQ7g2idapcP8BQAAAACQPYOgBPCyHNrVJFtOqEl6AQUAAACAnKEXUAAAAADIEwRAAAAAAMgTgyQAlsjY29R/DAMBAAAAADlDCSAAAAAA5AkCIAAAAADkicEVAEunS/2sEnMHAAAAAJBNg2AcQJuvvkE26LEAPdply9K9csjcAwAAAABkbtCUAHbsapK1e9olEDQzAAAAAABZNWhKAAEAAAAAuUUnMAAAAACQJwiAAAAAAJAnBiQATpjgM1MAAAAAgP5CCSAAAAAA5AkCIAAAAADkCQIgAAAAAOQJAiAAAAAA5AkCIAAAAADkCQIgAAAAAOQJAiAAAAAA5IkvfX1u7R/MdE50XblspsL0OIDnznWYe8Obb1a11C8ql8rSYjOnW/x7/LJrV5vk4hVId301qxqlcZq549EtgeCnsvvlo3LobPR7KFIiDesfksWl5m4sweOy9olW73pnLZDm5eXmTnyBPTtl9a5Y6421j+rxJ47L7t2talvNDKmQNTtqpdLcS4V/2xbZeNjcAQAAAIYhSgBzqGZVg2xYPt0TVESKpXJhrWxYv0BqzJxsye76iqWstFwan3lINtWXmHkDTYXOmPsoUjZtutrWBlkzy8wAAAAAEIUSwBzx1augslCHFF0Ct0927bpsl4RNrJA1j9aqAKOmY5WQZSjT9TklgFGlXxNLpObe+dJonrNlXZM0hUrXkphYLZuemS5liUoA0953d4mj2sdtah8Pm31Uf6upnyF1C8ul7MR+WfJSmzU3mvMcae4PAAAAMExQApgTFVJvBScdrJpkoxPGtLNtsvGJ/eLX06XTpT4rJVY5WN/Zy3Jo1z5pCZr7A23WDBP+2mWLCm8bQ+FP09u6V1av25kg/AEAAAAgAObCrDvstmfB47IrZpsyFcq2tVtTlVUV1v99ks76FlWLz5oaSkqkYZHdbtC/ba+rnV+EmG0VAQAAADgIgDngK7vF+j9w/MP4VRwvdEtA/z/tjj63BaypssNRSusrLZYJ1owkdBXQVfOtUrfACf/AVpecOElmmNK/I3TSAgAAAGSMAJgDE8rs6pjBQIISqbNdYteuvEXGTrQmMlQiY2+zpxKv70M5aq0w9voqlzdK8w7X7ZmHpFE9b8u2nbI6F9UqS6fLBvf6XLeojlzGFUuZ/v/ER3LImgEAAAAgEwTArHMCWbdcuGDNiKNLLmS1fV2y9WWgtFgWL5+vAtnA9gLqlKgCAAAA6BsCICy6F9AlS923nbJ223EJ6GEkludgKAjdC6hnfeEbY/EBAAAAuUEAzLrL0vk7/X+xjBtnzYhjpIyz2rVlS7L1peuydBxuldXrdAgUKVs4I+vjFqaqI/CpPXHbyCHYgQ0AAAAweBAAc+BcoNv6v7QsQanZxJFi579PpbNPHaw4gTPZ+pyOVNJcX5K2g/0i3Q5sAAAAAMREAMwBp8SqbPqkuCVWvnvLs9axyaFj9hAPKa0v2C3nrDlDSCiElktdtquiAgAAAHmEAJgLhz9KMvC6a+D2Y1noYTOd9b3WGn+oiFjilBz6Zi2QTatij2EYCpu/60pvXXFdlneO26WqZQvnS0O8ksiJFdIwwB3WAAAAAIMZATAn2mTXHjuwVC5vkDX1JeGSORVS1qyvTTJwe7pcA71nbX3qOXTIe2a6FeYCe466SipL5GuLVMibVqtCYLXUuAKZXmZlNsOt0bFrn7RYpYDFsvgZvY8VrtJOZ1trrV5L4wZEAAAAIM996etza/9gpnOi60r02HQTJvjk3LnslA0NZjWrGqRxmh2GogTbZcsTe7M6rl0m66tZ1aiWMXfi0T12PhFZcmiCZZyObAIn9sceP1AFtebl9sD1Canll0QtXyIN6x+yBqePrVv825oS9CLqLN8tLeuaBnZwewAAAGAAfNlXfvvTZjonfv/7fzdTYUVFt0hPj+nZcRg7e+Q3cuyTEplaViyFhWamCimBE4flf/yPI/KemZMt9vq+LMVlI6Ss8E/MXBWK9hyWzZtjr29i9QxTxTNaQIXGg8375OntbRL9bl2RXx5ol0tf+VMZW6H2z8zVbQz9za/Kul3nzYwIE+6Uv66ME1Ldfvex/OuRK+aO49/lNweOxtzHwInT8n9e/r/S9GszK6Y/lT+vvUu+WnhNzvy/38hvesxsAAAAIE9QAthPfPUNskFXjYxZsgUAAAAAuUcbwH7Ssctvd9RitZtzt18DAAAAgP5BCWB/0h2VLDc9ZIaE26OFSglT0i5blma3DSEAAACA4Y0SwP50eK+sXrdfWk7YPYQCAAAAQH+iBBAAAAAA8gQlgAAAAACQJwiAAAAAAJAnCIAAAAAAkCcIgAAAAACQJwiAAAAAAJAnCIAAAAAAkCcIgAAAAACQJwiAAAAAAJAnCIAAAAAAkCcIgAAAAACQJ7709bm1fzDTOdF15bKZCpswwSfnznWYe8Obb1a11C8ql8rSYjOnW/x7/LJrV5tEvQKzFkjz8nJr0r9ti2w8bE26VMiaHbVSqSdP7JclL7VZc20l0rD+IVlc2i0t65qk6ayZnSuubU0ksGenrN7l/gxkuJ2ZrK8vr2dG+xd+vuj9tvnqG2TDwmLX313bkKLY+wIAAAAkRwlgDtWsUhf7y6e7wp9WLJULa2XD+gVSY+bEUllVYaZcZt2RVlBAWH+/nmULZyR8fwEAAICBQAlgjjglPXaJ3z7ZteuyXeI3sULWPFqrQqGaDh6XtU+0hksCPaVO7bJl6V45ZO5pNasapXGauTNYSgAj9yGpPpYAprO+vryeGe2ftzQvVilgdAlgLP38XgIAACBvUAKYExVSb4U/XV2vSTY64U872yYbn9gvfj1dOl3qZ1lzPfwn2tW/5TLT87cKmanDivqbtSxS1u+vp3lOSgEBAAAw2BAAc8GpWhg8LrtittVSIXCbDiWxqyaWBrqtAOH5m3lOv/ob0tP/r+dHsmuPft5yqasvsWcBAAAAgwABMAd8ZbdY/weOfxi/6uCFbgno/6fdEaOUqEsuBNV/rr/Zz9ktF9RCuvYo0tHPr+dtI0V2+SkFBAAAwKBDAMyBCWV29c9gIF4bL+Vsl+hMInKLjJ1oTbh0yTvH7RIku9piiXxtunrOYLu8c0HfH0RKp8uGHY3SHOO2Jkb11j7LaH19eD0z3r82SgEBAAAw6BAAs65Ext6m/++WCwnDhSmViqGsbKR0mBIkq9rixEkyo1TE/1o6na3AMVCvp7NOSgEBAAAwWBAAB602OXJC/XfbSKm5t1zKpF2O6PaE44rV9CCie8lcukWWxLjlZKy6jNeX4evZp/2jFBAAAACDCwEw6y5L5+/0/8Uybpw1I46RMi5J47NDx9qtKoiNukfREx95hjBA+gbi9aQUEAAAAIMJATAHzpmeJUvLEpT6TBxpOh/5VDrjjfN2+CMrPGj+Y+4x/5CRAXk9vaWAHYFP7dkAAADAACAA5oBzkV82fZL4rKloPqsaopKwJKpNjqjwEAget6sroo8G5vUMlQIm+DwAAAAA/YEAmAtOSVNp7IHePQPFJymJOrSrSVY/0Ur1zywZmNfTlALqz0OVmQUAAAAMAAJgTjjV/kQqlzfImvqScMnPxApZs742yUDxGG5CvZBOK7dnAAAAAAPgS1+fW/sHM50TXVeix8KbMMEn584N/wENalY1SOM0u6QvSrBdtjyx11sSNWuBNC9XAeHEflnyUpySwbiPKZGG9Q/J4qSjmqv1Lo1Ybyac7UgmW9uZyfr68npmtH8q3O9Q4V73HPpE9BATvvoG2WBKfgN7dsrqXfHGiXReo25pWdckTfHaiAIAAABpogQwhw691CRrt7VLwDPeX7cEVGhYGxn+MOw5pYAAAADAQKEEsJ+ESn8SlUYBAAAAQA5RAthPQqU/02pl06oKeoMEAAAA0O8oAexPsxbIpuVm+IeQgWvn5W6TllyW2g4CAAAAGDCUAPanw3tl9br90nLC7iEUAAAAAPoTJYAAAAAAkCcoAQQAAACAPEEABAAAAIA8QQAEAAAAgDwxIAGQ9n8AAAAA0P8oAQQAAACAPEEABAAAAIA8QQAEAAAAgDxBAAQAAACAPEEABAAAAIA88aWvz639g5nOia4rl83UYOCTm55+Tm4c45eeFc/LNTM3qZmPy5illeZO2LUdj0jPEXMnBSPUOovuLpXrJ7fKla1vm7kAAAAA0D/yrARwvHx5jPrvYqdct2ekpKC0zEy5+eWLNMKfjF8iN6rwpxWMGSsF1hQAAAAA9J/8CoDjTfBKMwBe3/24XFzxiLk9KVcvqplpPoecb5Uv9HISlGu/ak1vWQAAAADIgrwKgAWVM6wAeO14X6pfZlaKKNIhnz+tA+Tj0rObgfABAAAA9L/8CoClugpmUP4zYN/PyMx7ZYT6r28hMscmVsua9Y3SvKNRNtWXmJkAAAAA8t0AdgJjOmS5uFUubn1bCmYukRsXfENG6NI15fpFv1z90fNy7bx9P2T8Ehn15Dek4KS9XLR4Hb14519PdX0RCuqel1H3i1x97nH5PNFj43QcIxd/Jleebk6p9LBg/H0yYlGd3HB3aajN4PWTP5OerYmXr1nVKI3TzB3plpZ1TdJ01twFAAAAkLcGrgRwfLXcoMLXdRkrN6lANmppOIxpBWMqpejJ5+Wm8WaGo8xux3c9GC99xauiaeaf7JSCp19JfX0R7FLEgFxPFhRjdhyjtjul9n8+q8fQUU+usDqOcXcYU3D3N2TU1uTbCQAAAACRBi4AmiCnA82Nd+shFZ6UK05HK89tlWtWhymlcuOi+/REiBOsrgfjtKOL19GLM1+vb0ww5fV53Sc3qG2Vk+8mHULC23GMuu3w2/PjbXeIXVKph4uwOoxxb+eKJ6XnDb/aL7Wdf7PEEwzdDu0+Lv6gPR3Ys4/SPwAAAACWAQuAoRIyXSVSd4xypCMc2M6/LT0/+pl9P2LIhKTt+OKUEDodwKS7Pg8TIuOXPsZn72/y9ocFdX+vAqqaiLWd0iHXdj8vV1Rg7flRgmqgZ1tl4xNbZMnSLbJ612AahxEAAADAQBrAAGgHuavxgsz5WL1s+qTACkdH47bVGzHdbncXWdKW2foihMJlur14+mTEX6j1J9hu231y4/16O/3Sk6idoAqsydoqAgAAAECkAQqAJsil0JbOw7QbjD8Eg/O8kSVtGa4vgh0u0xwA3pLi0BFONdUUqpgCAAAAQLoGKAA6HbIkCDqx2vKl3AFMZElbhuvzcEofUygpjJTq0BFJ9w8AAAAAMjcwAdAEokRBZ8Sib1hhyB2aknUAU2CeNyqkpdB2L9b6vFIsxYsh1fZ/AAAAAJBLAxIAk/bkOfNxKdK9bUZUt0zUAYw1Pp8Zdy8y6IU6gImjIM76PFIIrfGkOnSEBOxwWXD/X9lBNpbx9yXcFwsDwQMAAACIYYACoA5EIiOWviKj6tyBxh7/zhlA/doO90DuDnuohtAyKhAV6XH97i+VayftsQ9idwCjg9VzMdfnBMfY6/Mq+ItqGeGMwTdeLT/TZ+7E47Q/rJQb68KPLZh5X/h5HOdb5QtrOIpKtU+Pq7+7nluvS782T66QItfzxFJTN10q7V2WsoXzpWGiPQ0AAAAgv33p63Nr/2Cmc6LrSuQwBPY4dzdKUPR4dnY4inb9jSflyu6IEsKZj4fCoVdQrj73uFyrVGHufrGmPw+Vtjnr86twV+kZ/D1Mj7f3P60hF+JTQXPriuiSOT1cQ6IeOxWrdNLq3dPr2o5H1DrNHcf4JTLqSbs6aizXT/5MerYmXl/NqkZpnGbuSLe0rGtiLEAAAAAAA1EC6LSl262C05PSc1IHwTAr4Dz3SHT40448bz0+TAW3N7Za4+XpwBe7qqW9vuu/+jfpiVqfmrbWZ4+3l9jb6nE/MwPG265f9MvVva0Jw5h2fbcKlzG2+2qs6qbnm9X+RL8uotelB4VPEv40BoIHAAAAEEv/lwCaEi6JVcIHAAAAAMiZfi8BdDpkSX8wdQAAAABAX/R/AEzQkycAAAAAIHf6OQA6PWKmMCQCAAAAACCr+jkAZj6YOgAAAACgbwZgGAgAAAAAwEAYgGEgAAAAAAADYUAC4IQJPjMFAAAAAOgvlAACAAAAQJ4gAAIAAABAniAAAgAAAECeIAACAAAAQJ4gAAIAAABAniAAAkAqJlbLpvULpMbcBQAMLF99g2xaVWHuAUjVgAwEr4eBOHeuw9zDgJv5uIxZWmnuhF3b8Yj0HDF3UjBixfNSdHepXD+5Va5sfdvMzZ3+Xl9+K5GG9Q/J4lJzN0Jgz05ZvSv6WB82Zi2QTcvLpSzYLlte3iuHzpr5A6JIHqudI8sKe2X7wQPyYo+ZnRHnuUQ6zhyTxacumPkABpVMv6ez9P0+WOkAuGFhsciJ/bLkpTYzF0AylABCCkrLzJSbX75I58th/BK5UYUxrWDMWCmwpnIow/UV1D0vY7Y+LiPM/VzyTayQNesbZNOORml2busXSMOsEvOIwWGobOeA0SV/OvyJCn9PJA5/U8ZPlc218+S9b9aZ2zzZPHWcTDF/jyfT5fqsaKzMUeFP800eKw/ak4OIDqjq9aidmvvXAtlXuUCaf6DOJ/q2jFKavsj0ezor3+8Z6o/v245dTbJ2T7fItFrZVM93FpAqAiDk+u7H5eKKR8ztSbl6Uc282CnX7T+n5nyrfKGXk6Bc+1VrestmIqP1+WTEX6jQmO6+pU2XljXKhmdqpbK0WAUHl9JyWbz8IRWwqtXWDLShsp0DSb1Gj05Xr023tKxT4c/MjeXB6nnSXFUhswtNorIUyuzJVdJcOzNuuMp0uazo6ZQ3e+3JjjOd8qo9CWCQyfR7Oivf7xnpr+9bOwRuOSFStnC+NEw0MwEkRABEhPHy5THqv7RP2h3y+dP6C+Zx6dndH9V7M1lfpvuWjsRVJUNU4JowoF9U6W7nZWl6YossWerc9ovfesDw5qufb71GgT37pClRyd/UefJsqQ5wvfLWmTdlyU93yz36dvCYvKUDVmGpPBujFCvT5bKnR17cb6+T6p8uuuTqu/n+40ff+cbcYqaQXZl+l/XHd6CjP9clcugl/Z1ULIsf5bgFUkEAhNfMe63qGteOD8M2df2wb05gCNFtxtaFg9Pabe0S0POWDmw7sqGynQOrQup125LgcdmcsH3jOFkx2S69e+vYAVl5qkdOW/eUnguycr8Kc3q6sEJWjLfmGpkul08K5XZ3wWg/Ibhkx4Qx6vhB9mX6Xdaf3+/9fi3RJrt0VdDS6VI/y8xKxcRqWbPebvpAFVLkEzqB6QcFMx+XogWVUqB/DbME5dobu+Xq7rdj/DLmk5uefk5uHOOXnhXPyzUzN8Rp0H3xZ3Ll6WbX8ma5i1vl4ta31TqXyI0LviEjzDqvX/TL1R+p5ztv349H19kfdb/I1ecel88TPTZOw/Lo7YqvYPx9MmJRndxwd2moDd/1kz+Tnq0xls9offdJ0dN16jVIVsylxXm901Iha3bUSmgrVXBY+0SrJP2kz1ogzcvL7WmrIXuX1KyaL3XTnGqZ3RI44ZfNL7V5nyvT5TLdTg/vc6TWCUyJ1NTPkLrpt0hZafjCUAfNo68dlabD8ZZ3litXy5lZSu6WM8zrm3Tfxs+U96rUCnrbZMn+U+EQ5+Y8JnhM7mk1JW3pLOd5jLcTmDd0kJwxOVyFtFeXJh6Tlecje4cJd/gSS8eZN2WxCqEJFY2Tx6ZMljmlhaFf2Tt6g/JPR4/IqwkXLZIp478qGybfJL5QVdde6QiekbXq9fDsu9rnlsml6nHmfiLu1zOLfA80yIY/a5e1/5jguNClhA3m+HtfHX/b1fG3TB1/d7mOv/fV8bc98vhzqM/nA+rz+WfqeBjtOh4uqc/nAfX59Mf4zI2tlk3f0VWSFWudutML8zxzdTtVQz3Hln/ZK4c6zX3DN7ZC6r9dKZWprC9q/9rEV1kt9fOmq+Xt2Xo9LWo9TaH1lEiDeg0Wq9cgJZfUuSfRa5wSdS76get8loC/aYtszErVBe/3rb4/ou6v5Mb71fe8/QCrc7Ie9TfPd9P4JTLqyW9IgfqbvVykJN//Rsrf0xFSXy6T64m+f99GbZ+6Rij6G9dzqvX2JLqO0e21n1HHRxodwtSsapTGaeaOVdW/KWFtD2C4oAQwp/QJ8RUZpYJLOPxppTLi/hUy6uklMTov6ZDP9+pvqEq5sS6iIoP+8rDCnzoJRoae8dVyg1rHdRkrN6kT66il4ZO1VjCmUoqefF5uSlKSUFCqT7QBuZ7kSyV2w3K1/pTa46kvS72NT66wOnJxvwYFd39DRm2N3s6M1jd+rNrvVL6MlGxUU5l1h+cixP9aBhc20ypl046H1BeSu02emp5WKxsSDUGQznLZ2M60qAvUVQ3SrLdvoQ5j3ovDMtPeMGZX3voLPbScmWc4y1kd1kRWp810OZeaKn3x2y1H300cFKcU3mT93xHojB3itM9U2NH/l4Y7WnlwrL1hKS2nQtMka4bX7VPmSfPcKm/7QTU9u2qOvFc9zszIDl1d9T21rmWu8Kf5dDXVuXXSMrXIzImgQuNmFTybVZANhz9NPU9plTR/c548FrFoSuEvi2qWNciaByo8+yUqJE0wkzr4rPmu+ryMNTMi3aWOvx+oz1so/Glq+i51/KnlvMetOh7U+pr143Voc4UxrWy0+nw2qOMhWacpt460At2a75rnMbNt3XLOE/7sdW74jgpKmazv1jtUsFPLN7jCn6aX/U6D93W5NcXwN5Q537dB9UWpv5e3PidFrvCnFdy9Qooiv8PL7A7LrOViSq3aZKrf05FSXi6T64ksfN+6t8/qQEZdI3gCpd6GRNt+9kM5GlT/T7uD4XqAJAiAOaPC31Z98tKlfVvlynNOI2x1e26r3RB7zDfkxpn2oz2O/Jv194L7/8qqQmFTz6d/OdS/nD0d45dB88WiA9SNd4tc2/GkXHGt75rVYUqp3LjoPj0Rx31yg1pWTr6btCTM27Bc3XbYP6teDyaLEvYvi3r4Bqsk1L2dK56Unjf86otBbeffeMNxRus73+x6bvUa6Hm6xND9PM4txVLLROzA4GiXI4fNZFrcF5ARVHCpi1tFJfXlsrOd6dABKvlFoQ6razxVd5wOWJIojayul+lybiUy9jb9/6fSmeTX4Ek322nlbG+CIrCez8R+mpvkDivsFMkddm5MspzTSYuznJsKeiqMdQTb5KmDpu3gT9+Up86YXl1UuNrs+SEl3N7PfVviPD6R8TOl2aquapcuhtoq6uWPBa2Q6ptcFRXkdDXXzVZAVZO9Qdl+7E3XuvW26mUL5fab7Udbzh9xPcZUg9UloKF5rluWSv/OXfxUSueqsKZ7q/xug6z8M/15vUXq1LTuwdIKPmpORIGaS4LjT4Wkugfcx22Kx4MKj2sSFWup5135bR3ozH23T7o8P+rULLPDaSIJ16eDXtzli2Xxfx/IHj7bZOM/bJElKdyyU/qnmO9b+Yu/t0v09I+yzz1pvk/U99hJ61Eq0Hh/yXR+yIz7vaVDlP4/YQBM/XvaK43lMrme6PP3rc/+oVzv+8zHZdT9Zoin0LWTel13/FuSbb8s7xzvVv/fImNTbGN/aPdx8evQqCRr6w0MJwTAHBmxQoU/Hdae052UvO39xe382/L5j35mnQALSiN+IbRElgLq0KSfLyhXn4tdLSRUQmadcNU6j3SET7BqfT1mfZJoyATz5RP/18n47PUH5T8D9v14Cur+Xm60TvIxtlPt97Xdz6sT/la1vYkDWarrC0npi3Ww6JaWbTvt9njrjot7F8sWzkjwy2amy+We/pINqO3z79kva11tDZes83YmU1nlvpAcKeNcP/4GdLUeZ7mlO2XtNvuLO/pLO9Pl3MxzBLvlnD0jDifI9crHn1kz4lB/j5mzki2XmFVts/WUq/plj7x66kAo1M0em41SwCJ5bLL9gtptFb1VNk+rwLZYhUAdSOeM9SbAKVMny2w9YVVhPSIveqql6m1Vyx58U1amf8rJqo7X98rqF/ZLy/vq4nG0CnNWqNL/q9Cjqzk2qePqH6OrVHqp408/ToeNFyKOv7ne4+/Qz83xcFAdDy+oxzshRW2D53i4O1GwcrZTPY9a71rnOf5BTf/cVf1tbLXU3WWmFe9jt8japnbzF7W+eYk70NDLxtpOqzTSmrgsTf8Y3o6WS9ZMm65G6lqvdetz9c+B4XzfWiVeb6jgp3+UPe/sifoee81830awS7gSfG8lLSFUMv2eTmO5Pl9PZPR9a0o/ZYYULS2zQ6euQhvaXPW6qu1ITbGMS/XUd7ZVNpoOzob1WLZABAJgTphf2lSAK3ryFRmzNcbNKs1LwFUKeNMK3SZAh7/49fadL5ar8YLT+RROxKEvn3S/kp3uno8maWN4n9x4v97OGFVY3dQXTOLnSXV9LmbfhkLnNv5tTeH2aerLabNu2B4S/5fNTJfrF2p7Vi9tko3viky4d4E97qBueK+HoDAPsdzmXEhqXXLB/DKr6RLCTevVsvUVUqP2peOw/cUd/aWd6XJDTa+82Rm79PB0p10qJzfd3PceRJ2xAlWI2xrveFPnF11S51PHWXh9RXJ/mV1quP1onDaOWk+CEtD+1NkmTdubZIkrEOnQslYFv5jt8SL4m9Tx5zyuUx1/ByOOP3c1SfX31f+gjof31PFwj/psflcdD99Vx4OuomkeYgkFq3jaZcsL6nnUesNnbTXtCqq+e7zVQysbHrJLOs1tg9POT3NVe40UOLjTWo9FvVZH3rcnLQmWG47s71tTMpagF2pv2HJKuOJ/b42Ybr/7Cb+DM/2eTmO5Pl9PZPJ964RGFaqv77BDZyY6Ap+aKQCJEABzwfR+1TeuUkCrCkaiRtvmi0XSbxPgZn/5ZDJAbIrdPTsn+LSrrkRKv3tpe9/SKDEcRLxfaKn/spnpcjlhDTZvBz7dLs8ad9C+hkrgsjS9HFGSUqqWXaie45mHQgPW10yMrBab6XKZ6JGPPtf/R1RjjBKvN8tky/VRnLaDabnZtPkrrJDm0ED1kbcqu6TPw9nnz+WjQZLxkiuRhnk6ELVLiw5wd1XK1+K1+0ui42LE8WdVKTastnvqc6gCn26/p9vl2aV56fE3JSuVTLcnzoig6hK86A3B5y66A24+cb5v9Xdl7JBSUDkjOmyZdnXxv7ec5038PZXp93Tqy/X9eiKj71snoL7xpAp/9iwAuUMAzAGn+sS1Ha4673Fu8X899MlNC/RJNBUmECUKVkmrZDi/TqYeqkJS7e459AtkH1Kqlnb30tkJyMmcC7gviMplZjpdUaesWy5k1OwpvFz/bKebuti1Bps3d9OhSw7X7ZQtJ7o9gS5EBTsd6tbMighzmS6XgQ8/s6tbTiyMagAXVnSz2AWwThhygmOy5Uzp25AKUUOX74H5snh0t7S8sFeaXt8nLZeKZfG3szGumDr+fmcm9fFgdcZi7g4qn0pnkkA5+KjX01WimeiWsE1lypL/ABmzqmfS7z/neRPVbMn0ezqd5fp6PZHZ960TGr/wZ1by5/CVMYQLkAoCYA7Fbt+XmhFOtc8ddmPqEQti9RhqmECUKFiNWGRXOY0fmtIvVXOk3R6vj9JfXwpfaFnQ8W67J2xULopz4ZhmyZO305bUxVsuV9sZj6++0lOtLbBnv2xR4WytaZe35YT5QyxqG3xnL8uhl5pkdagNn1p+T+Q+TPLuQ6bLhZhqpHogfHtGXKd77STnrf7oNWVsqb2eYKe8as0RebXTrqea0nK9vfKhNSdFTqldusvF4vREqodciNURi/sWcziLWB3YpCkbJZnJjK2WlXOLJXBwnxnWQLdn2y/+0dNlpacTl9TU3B37+PM9EHE8HFSfyxfC7fK2uKtWZoG3pK5dtrjb4EXd9soh88isS1qddYhwavjE/a6MHYCcH4bjVcEsSPq8Wqbf02ks1+friUy+b7P9I22mP5QC+YMAmAPXg/YlZsFfVMcNbQUz1QnPTEcaseIVKXKqfR55W66+oS4U4/UYqiT7YtFj6OnnS1j9I4WTfjz2r50pnLgD9pePt3fTCOPvix90jZTX53B+rcy1s62y2x1mSqfbQzC42t75Zi2QTc88lHDA2cpF4WX04+tCYxQpwXZ5J07HJSkvl6XtdLM6mQktr8KX67k81Hbs3tUmh1Q469CPm1Xt3U4P3ZvnQ7JhR4NsWlWtnl9vi1rusFp+19GIfXAHtUyXc7ssnVaJTQptJ037t/gDtrsGfO90XZWks9yZWMEqXvXRcKctCYeYSJXTE2np5Bi9fCZyQfZZGbdQls2YGr8tYlFRCu0UsxAik/DdVmy1+Vv9uruqY5ts1G0Cx8T7oSCscp46hkz1SV+lOv5cHa/ojmTeiVWypubvfl19LjvN8VDp7bAlGzrec//oUS6NeliKse7j2l6vHgYju9Qx9ImZ1FSQrq+MWK9nOzLVv72Ahmr4pPljasxSQcMa/86Mc5vwOzjT7+k0luvz9URG37eZBttIJfK16brKc/Lem8NM8wQ9EHysoYiAYYoAmAtHzC9fKrTpsf5GuC7u9ODn9rg6z8UMdPqLQJ9c3fXgr+/enbAU0P5iUX9f+oqMqnMHKHu8PWcA9Ws7Yvcg6qZDa2h7x6vlVVBNzPnlzjtuYcHM+zz7bTnfKl9Y3UdXStHTj6u/u55br0tv65Mxxk7ySGN9ke6uk5tc+2O/F+r9Mfez4dBLEb3jWVUN7S8Xfduw3O6QoWxhgnDlWsZ5vCPhmH1pLNf37WyTI56SO/fyD8nKe8PLeNoi6vWYdejHbVgef7gGX/18WWx9tIulbNp09fym/Z5ZNjx4r3Lio1DJRabLRTp0THcGUiwzXPsS2wXZ6vS6WTVPNk91BRprDDzTPi6qE5ULstLqPTPd5cJmV+nx98Z5lgsP9h6Uf0o2sHtKeuTFM3o7VZCbq7dTrc8TxorkwakzpeWbM0NjHDpePW0GQdftB2tnymPj3QvqweHVcnPnSHPcMQu9IfJBz+JqvZ7n65sO/15ZbQ2sHsGan0JvlaPVZ/s76jP2A7tjFc/xdyC8vKdtoF4mVEVRHQ8NKQxfkq7OVtnt6bBFb6c6JiLWWzm3Mv44hxk6dNLVoY6iO6DxrPfbyYP1YJMoyFmcsBVzjFp76ITQd7Qe6FyPFXx/qVw7aZ8L4gYvl/S/p22pLJe164l0vm+TNlFJ0cRJMkNvfoLzeiSrhoq9y+r7Qh0DyX7wA4YJAmBOvC09Zpw6HQLdPYE6g5/r8W2uRvx6VmDGvhE99o2nbWC4FDA6HJlAdDEo161eQ1fIqFBvo854e95AGZMrtIa290m1/IL4pZi2Drn2K/uLq+D+58L7uXSF3BB1JdMRGv5CrIFkw4+31mW9Lj+TngS9qqW3PiMUPNWXrwreoWWs9+IbckOcktXMtMlGPbSBvYnxBY/L5jR7oQzs2SkbMxizL/Zyfd/OqBDpUjbddWF3+Ki0xF1Pt/hPxO5MouNdv7TE+ZtHsF22vBS+cM90uSiHP7L2z7MvcZw+dUCeCuoQWCizJ6tA43SO4hoD76lY1SPPH8lsOUuvdKhF9fh77uXs8Ncr2w8eCVU37TO1nfbQEno71frmmvVZtzny7ORS8ak/R5XS9ZySxQedEFgqy/QA9a7lrMHh9baejl9fyx0i9YDzoeVVcHy26qtRoXOwsXvPNHc0vzoe3MMjeKjjQQ9FkWWHtu+ULUmft1hm3JONEjmXhPuqDLneQ5NXVYxXgnbtuPkQ3O36jrYGOtc9fD8iV61zZJKmDZl+T6e8XBauJzL5vs1S/wC+e+0fXvzHEpzXE0rlBz9gePiyr/z2p810Tvz+9/9upsKKim6Rnh53D2nDUOc7cvXkJSmoGCcFN9nVuDQdcHp/9Iz0Hjgn/2XmaVb407+s6XF3fvC652/af/3291KwaIb88aRb5D/3vOP6lezP5U8eniEFH/+zfPKDn8p/TpiqTuCFoWQfWt+7yV7vc/LFya+o7Z2stteec/2iX36/d59c60y87H/9ts1a7wi1Xpse/P6f5WrEPlo++438fo8/ajtFrevqv/4vFf5+Eb1MhLTWZ/lU/uP/+eVLapk/Di1j71/v5n+Qq6fMjGzpuSK/PHBUjn3yZSkuGyFlhX9i/qAuG1ToONi8T57e3qa2yphwp/x1pdNTX7e0rHtVztxSJl8tNcupZVrUMs//34gglulyjnS3M4pa/kSPfOWW4vA6lUCwW9qOfyynTl0xy/67/OZAu1yaWCYzQo/rlsCJw/I/Xn5LXv/tTfKXc0pVtFA+D8r+Axfs5dT2/ebIb+RfzTpulj/RTcFCnG3csf2kvGfmWTJdLsoVCXxlktROv12mfqVd3jgVfS5za7vQLm9dLZIqtbJbbjAzdUgL/loePXRa4mV3e7k/klsL/1h8NzgL6gHXfy1rj8RaboRU314u0/7jrDy6/23514h16oHhf3D0XfnfKRb+3Xrr7fLXJTfIp1c6pPmTL8zcaJc/aZeXg5/LiBGFUlx4g4S6WuhV29phb+trsRb/4hNp/m1QOv9ohNx+Q4zXZv97sZdz6OXVeqeWFLpeH7WfKhz/9Ne/lf/9WaKFc6hMHX9/7jr+XlDH383q+BttPuN6/MCfqePvUOTxp46Hw+p4GKuOB+ex+nh4Xx0P/6KOh4/U8fA1czyoVLD/sDketJvHyf3O35Tgb47KL5P9iGP5dzn7q9/Isfd75OrN6phQ6w0dEpdU6DxyWDbv/r/y4+Ouz7hn/6LXdcudfy615c72fypHf/6hRNe6s/f12JU/laljiqXwRjNbCaj1th15X975wDlPDAXm+/biMbn6/34T8/vmj+cstULdF6//XP7DPcanuib4zwl/GfW91fP8NrmmHmcv1ya/f8X9/R4p0+/pVJfLxvVE+t+3BTP+Wv50UqH8xy9+JF9k3AlRhSz/7l1Spn+03O46ZpL49NR/SPnM29X3n32/94P3k57rgeHgS1+fW/sHM50TXVeiLz4nTPDJuXOJSnmQsvFLZNST37AGo000HhEGsVkLpHm502GEDnJNCQYod8l0OaShRBrWPySLS9N7fadMnSfNuv2e7jildXD3RuBsqzWofFaqjOaJSnX8hcbQ0wFQfT6GXA+agMsQvp6oWdUojdP68D1ovk91jRkGhEc+oAroEBdzvCEMYZmO1zfA4/wNW86YgsWy+JkFUmPmJnP61Bm7g5fSKmmpdrXRG4Qm3Rz+lR6ZihjnDxiChur1hK++wWrbHdizL+MfQe3hI7rl6LuEP+QHAuAQl7RBOoC+0WMKbtM9KZZLo+4t1cxOzO7gRV9G+VQIDA+gPi/NnjSzSHcQM97b46buhOVZq1lPr7zZSekfkM+G4vWEDn8bFhaLnNifecndxGpZaT2Hn1o0yBsEwCEteYN0AFlweK+sXqdLApVUe4k7f0QWHzwm261OXgbelLGTrU5YwmG0zuqEResInpEXyX9AHhu61xMBFf6WJOrQK64SFSD1kEfTpSyYpFMwYJghAA5p2Ro7B0BSuiTwib1yKJ1fiHsuyIutB1yDpR8YsKB1uvOY1eOop3KX7sDl2JuyeJC3UwSQa0PzeqJjV5Oszji4jZT6heVW6eFafW43c4F8QCcwAAAAAJAnKAEEAAAAgDxBAAQAAACAPDEgAZDqnwAAAADQ/ygBBAAAAIA8QQAEAAAAgDxBAAQAAACAPEEABAAAAIA8QQAEAAAAgDxBAAQAAACAPEEABAAAAIA8QQAEAAAAgDxBAAQAAACAPEEABAAAAIA8QQAEAAAAgDxBAAQAAACAPEEABAAAAIA8QQAEAAAAgDxBAAQAAACAPEEABAAAAIA8QQAEAAAAgDxBAAQAAACAPEEABAAAAIA8QQAEAAAAgDxBAAQAAACAPEEABAAAAIA8QQAEAAAAgDxBAAQAAACAPEEABAAAAIA8QQAEAAAAgDxBAAQAAACAPEEABAAAAIA8QQAEAAAAgDxBAAQAAACAPEEABAAAAIA8QQAEAAAAgDxBAAQAAACAPEEABAAAAIA8QQAEAAAAgDxBAAQAAACAPPGlr8+t/YOZzomuK5fNVK745Kann5Mbx4hcf2OrXNn9tpk/BI1fIqOe/IYUmLshF38mV55uluvmLgAAAABkYuiXAI6vlhtU+NMK7r9XRtiTAAAAAIAIQz8Anm+VLy7ak9ffeFeu2ZND0/lmubLiEbkYum0d2vsDAAAAYFAZBm0AO+Tzp+3ANKSrfwIAAABAjtEJDMImVsua9Y3SvKNRNtWXmJkAAAAAhosB7gTGJyPq/kpu/ItKKTDt+ESCcv3kbul57W25ft7MCgl3+BLL9TeelCu7O8y92ApmPi5FC9zrixZ+HrM+cTphUdu74u/lxrtLQx21XD/5M+nZmqCDlvH3yU2L6uQG9zIX/fLF3n+Tz48k3laR+6Ro6woZkXInMOm+nl41qxqlcZq5I93Ssq5Jms6auwAAAACGvAEsAVThRoWrovsjw5gKSnevkFFPPi9FdT4zLztGrHheRi1NHP5iGjNWClSQs7bXFeS0gru/IaOeXhLdc6cOj2p9Y55c4QmMWsGYSrlxqXqumWZGVvT/6wkAAABgaBmwEsCCOhXG7i8VueiXnh89L9dCpVM+KZj5V1YpnfwqeYme5jxXwhLAmY/LGBX+dInY1R3/M1T6VjBziRQt1UMvqO1Qgc3b6UpkiWPkso9bgVK7tuMR6TliTdrM+nRp39Uf/ZvaP2e7dCnd36ugpvY95jrdUi8BzMrrqauAPjpdKtXTBPbslNW7cj2EBwAAAID+NOBtAK//Socjc8fSIdePPK8Cj+7UJUFYSVNBaZn1/7Udj3uqXl4/0ixXdvjVVKXckKhETgerFZHLPi89J+3pgtKI0jW9D8+pfXhahzH3fnTItd2Pm+XKpGC8NTNr+vR6nm2VjU9skSVLtxD+AAAAgGFowALgdf9Rq0Sr4P6/l6K6+7IehDIRFeJCgnJVl6qZe27Xg0EzFS3U5m68T0bokkZdBVUFwjFbX5Giu/UfSuXLdi7ts8H4egIAAAAYXAauBFCPeffcz+TaxVIZcb9uo/aKFYzGqICUiwBzPRiw/h+x9HEZ4X5u3bbPVOO8HsxeiaNmVS99Wu3Tk89Z1UxH6LaAY3TVzxzo59cTAAAAwNAzsFVAVWjp0WP4Pfek9LzhV+ElKNdVQHICzKgVKriYh/ZZqLpmpRQ54UjfnlwhI/Tsk1vlqrsNX19Z7QNV6NPtBy+qfXtjq/So/byibnrMQqfqaFb15+sJAAAAYMgZ8DaAlvO6XZwKaE8/LldUOLr43FYVXsTqvTK7PVfa1TW9nakErXB2ZevbKQyzkCqnVFF3GqMC39Nq33a/bbUFvO5pD5gj/fZ6AgAAABhKBiwAFsxMUBp1/m3p2as7ZlGPK81S3UU9/t/dIld1xyw6FIVuj1vhLHvhz+XiUbkWc6w/X3olcXoYCjMZT1ZeTwaCBwAAAIa1gQmA4/XQCytk1Nbn7WqJ472lUtaYe6F2eZ4uLTNm9wJaKl+u7McSsDHfsNvfmbv2kAyPyyg9tITVCUwy5+U/L+r/K+VG9/Oo18fbjjE7r2dNnT0EhFa2cL40TLSnAQAAAAwPAzcO4MwlcuMC00YunhTGv9NSGgdQhaRRT+rx/uLTY/Z9sfffXEM9OOMABuXqc4/L5zGyU7x1h8bli0UPKfErsQZtjxo/MELc5zm5VS5ufdvcyc7rWbOqURqnmTvSLS3rmqTprLkLAAAAYMgbsCqgevw93WHJlR2650rvUArW4Ok7VKBKIfyl7HyrXD0Zf8gGrWBMpdy49DkpSjQeYIqu737cGl/wulWCZ5j90m0CryXelBDred5Qz2PuW/TzHPem0Wy8nod2Hxe/WTSwZx/hDwAAABhmBqwEsH+ZkjxJVALmkxErVPi7WwWmRCWJAAAAADBEDY5eQHNtfLXcMEYFu1+1JigB60g4qDsAAAAADHX5EQCNgvv/XopmRvfAqTtJuWmF09bOL1cp/QMAAAAwDOVJFVCREStesap3JqTbyv3o+ZidvQAAAADAUJc3AVCze8qcIQVjSj2lgE7vn3rMvqx1OgMAAAAAg0xeBUAAAAAAyGd51QYQAAAAAPLZgATACRN8ZgoAAAAA0F8oAQQAAACAPEEABAAAAIA8QQAEAAAAgDxBAAQAAACAPEEABAAAAIA8QQAE0P9mLZBNOxqlWd02raqWIdEv8MRq2bR+gdSYuwByrFKdJ36gzhPqtmnZEDlP5DlffYM6p1eYewAGKwLgsDVaGh75njT/3fdkU/VdZl66nOdYLg0lZlbeK5GG9XZwsW580WWgQtYsL5cyc69s2nRZWT/IP2A6sD4z3d7midYc9Ksieay2Tt77Zp20TB1n5g1H6vzyXTvwWLdl+Xx+UeeJBtd54i51nniAL6KhoGxaLd+NwCD3pa/Prf2Dmc6JriuXzVSYHgfw3LkOcw85UTJbNj1cbb48P5AtP/yJHLKm06ED4DJZXNwlLT/eJk3Rb2Ue0gHwIVlcau6e2C9LXmqzp1VIaFbBJlq3BIKfytHXjkrT4Ry9iO51u7cpW+LuWwJxt0Nd2O2olUpzTwvs2Smrdw3SD5gu+bPCX7tsWbo34XE0ZfxUWTG5VGYXFpo5vfLWmTOy9dQFOW3mhOlQM0eWOQ8N6ZWO3s/lzTO/lRfP95h52WbWLW2yZP+pGNvWV+Nk8zerZLa5l4q3ju2WlefNnUhFU6VlboUpAQrKUz89Iq9a08ONDoDq/DLa3H1fHUPbs3gsV6rjWIUqS7afO5Y+rU+dJ34QcZ44qM4Tr/NFNNjpUsANC4sH93kdyHOUAA5Xl0/L0W57MuA/k0H4Q/YUS1lpuSxe/pA06yqEeV+C1Ca7trVLwNyT4HHZPGgvEtQF+aM6/HVLy7rE4e/B6nnSXFXhCn9aocyeXCXNtTPlQTMnuULxFZbKsqo58l7tVJli5ua1nk55s9ee7DjTOUzDH7zUeaLJdZ64pM4ThL8hoWNXk2w5IVK2cL40UGMCGJQIgMPWJWl65fuy5Iffl9Wt75t5GHAqCDY+k/12ZL6yW8zU0NBxeK+sXrpFlujbE60yWOsD+OrnW6W9gT37pOmsmRnDlKnz5NlSHfx0id+bsuSnu+UefTt4TN7SwUUFumfjhjldomUeby3zpjx1Jmi/JoUVKjwOxRB4QVa698m6vSnbrRDXK9sPRv4tQemfpUde3G8/bvGpC2Ye0uUb07/nib6ur8OvzhP/oM4R+vaPg/c8gWiHXtovfimWxY/SdhMYjAiAQE7oEiMTcNapL8KgmW1RITDL7SMmlBWbqRxRgc3aF9dt7R5TxGzR1SO9f896NdR+VyH1C9XrmrSEcpysmGyX+r117ICsPNUTrlLZo4LQfhUC9bQKcyvGW3MT6+mRV08dkcUH20IhMKXl0lIot0dVPcVwN2FMjs8TEfp7fRhM2mSX/o4onS71s8ysVEysljWmnf2mwd42HBjCaAOYA77q5bKhcqT4931fNsa9Bnba18Vun+ermC31VdVSGfr+7JJA+y9l8+vvx/gV1HkuczdCwL9dVrdeMvdiGa3W999kZdWd4uSIQHur7H5XXbbe+z1pLM92G8ASqamfIXXTy6XMaUunBILtSdvJ+Saqi/JHK6WyNLyzcZeL0S7ON6ta6hdNV8vbs0Ut2/Ly3tilO2pdDXWVsniaWVewW/yv7ZMLi1JpA6gDYJPreSPaDsZsT+a8Lreo1yXZ/qnnWzU/vG3JqBCzNkZJW1qvZwSnnYctQfu4UBu6eCJfK8W1jNWO5N1J4fvqNd+sX/P6BbJyod1JhJ63Okbg7Mv+Oe9n0nYs42fKe1Xqje1N0J7OeUzwmNzT6pRgOW0A47dp0yWLzTpcxnvuonHy2JTJMqe0MPQre0dvMHb7QbUNLZNLxZdK8PNsp0uc9f3TUbX9SZsrOvurSwAPyItxHx+vbaSt48ybsliF7EgPVtfJs6X6tfyt3FFdJcucElkdys+r54yaZy3m1af9S9NYdX757+r8cpf5bF5S55cD6vwyL1kbQHWeeECdJ/5MnSdGuz7Xl9Tn+oD6XPsjzhPL1HnCWUcyl9R5IkZJm09ta/231XGUy/WNVcf8d5KcJ15Q54lOc1dzLWO1D3xPnSec++q126xfuwfUeWKuOU+oeatjtENMff+UqHaNXVKj9rlO7bO97d1qPX5r3bGvctJ5/wz3axP6TJjnMftmUc+x5V/Uedj9GqWzviy9niHOeTxue/BoNasapXGauRPruwFAVlACmAMdH7ZZ7RYqq2bHr/qgApcObAH/LyIumu2eNzfMd4c/baSUlS+SDVnvkdMOjxvmh8OfVlZeLY0PL5e6bNcY0l8IOx6SRn3hHgpDNnc7ueh2A+pLbJUKHM/Uei7mNWe5hF1P33aHCkxq+eWu8KfpZZ9piF6f9cVV6w1Yar2Vaj3hEJeOy9L0WruZ1splZuhXUXvfmkOvS4r7d5v3cenp4+vZj8rKZsgaV4DUPczVr1qgwmf4wkfPW+P5lbnv+1dTpS/yuuXouzEuyFymFN5k/d8R6IzfmcpnvfbFYOnYNNoCipzudKqCFsoka45DB5p58t5cO9S4zzNO+8HNMUoNUwp/cegwGm99z87VvXMWmTkD6Sb5Wx0eraCn6TaYU9VrFTGvKrpNZr/un3Whrc4v7qCkLs4rG1zhL4r6TC9T54kfqPOEvgB3XcxrZaPV51otv2lZxOf61j6eJ9Q6N6htdYcjLTfry1zZGHWecEKSvn+XOk8sU+cJV0DS89a4e5XJZP/c7qqUTfr9CIU/TU2r9Wz4bmRV/wzfv0i3jrQC65rvmucxs23dci4U/vq2vsxezwhnP5SjuvbLtDsYPgcYZAiAueB0wFJcIV+LE9ZqJt2p/u2Sox96S+Z81YtNSV6X+Pdtt9rwWbcfvyYtVo27kbL44W9FnEzD7f3ct7X+LvP3+GoecEoOvetbq9bn71ah0/ud0UdOhxpJlEanzppV6kssSWlXdAhw0Rf9cZcvlsV17i9B9eWasMQqQxe6wx0aKKVlzodDB4zkL3TC/UtTn1/P/jSt3NMToFap5kWqrAq/h33fvxIZe5v+/1PpTPLr86Sb7WBxtjdBEVHPZ2I/zU1yRzo5ItT5ScRy479qBRVdOvXUwTddbel0+0G7t5SokHP+iOtxplqqLlkMzXPdIkv/xs+0SyKtNo7HPMssOWaHVN/kKnksKxkp3N7PfVti9iuxQhXYnDaGps1hYYV6rSLmSanMdwfkft0/dX5xXVinLsXzRLKL8jTULFPHUZLSvGyur0/uinGeUPMiVd7tOk/0ef/cwS+CClh1nmErsvT+qedd+W0dWM19t0+6XKWOfVxfBq9ntMvyznF94XKLjE2xM5hDu4+Hmkwka3sNIHMEwJxQgezYB+p/FdbujTEGX8lsqbMKF9rkHXfhgpq/snKkmrCrXG5sc4XDy++rkLfdhMA7pa467s/EqXO2I8b6OtT6NobWly0jZZyr9ExX2wu3Gdspa7fZJ/6ok/7EaqkLVQkR8W9Tj3W1NVu7LVyyVrkocYNzvay1nG6XZ+ZZbhsZWs5XX+n94lPbaa9vp2zxtHvLHv2lF5Bu8e9R63LaDsbYznDIuSxNTziP2ykt7jaGntfV3NzVP7P4eqbkbGu4wxfn5lpHSvQ+rdOvkcNuY6l7mgtx3sOs7J/5rAa75Zw9I44iucMqAOyVjz+zZsSh/p5KfomrUG6/2UxqKswtUYFm8X5dNdEdPHX7wQPylPV5SDNsxlUkj022D1y7jaN3SIvTalsWq5Ckt3HO2KyssE86VICzq5f2yBsB+0V3z/voc2uWS//un++BiPPL++qYtzo6UeeXg4nPL4d+bs4TB9UyL+hlzO2FiPNE6KJcnSf+0XmcOk+4f2/UVQmd5Z2bu/rnWHUcub6+/E3qOHI9dm2T6zia5xxHfVhfpzpPRP7dtY6U6HW8EHGeUK/TFnc/aLoETf+f0f7FotahlrWW86xbhau5Mzw/1qb//sWiQqf19a+ex7PNavrn3mqWfV5fOq9nQsUyLtXhO9X3xUbz3cYQEkDuEABzpe2MfYItnxxV9cE3qcL61dB/7C3Xr3XKyFH2r4ntv4zT3s4JluqL5fYpKZx0k0i6vmzrkguuoKJLYDatXyBr6iusoRE6Dtsn/siTvu9ebzUXXQ1zgzMQu7ptcI9PV1osE8xkJN2Wa6PT7utsmxxxhwfXct4OVdply0tOW47LcmjXPm/YyhYrJDXJxnfV+u9Vr8n6BvXaqP3TVRjNQyyuoJqpbL2e/cl/TF3YnO2S0EsfbJd3zoqcC0RfMA/F/cvEaSf3FRXJg+OnyubqedJSO88aLP1ZK89EhMZMFY2VOVbhWJtsjddT5/lOq0TRVzZ2wHssjVUS65734WcRSbyf98/bMYo6v4Taiqnzy+vq/OKtFOJlhSR1nnhPPc896jzxXXWe0APH6yqM5iGWlC7KE/PdE3EcNajjyBmgXt02OO3gtNGD5DxxUp0nOl3niUvqPNGpzhMXY5wnsrR//qamcDs69f5s9oT4W2TsWDOpZe39U5+bF9TzqPWGryHUtKftn9LH9aXzesbTEfjUTAEYTAiAOfO+7LKqYN4pMz0/ro2Wr92uS/k+kCMRbaJ9KpBpga5PrP9j6rpi/xpXPKrPX7gprS+rLkvTyxG/kJaWS+XCWml85iH7At0aJ89bbza9Hi7jVzUJBrzBMlZ4CFf9M5KWAGXJxAq75zMV+HQ7QN1uLbKNZLZk6/XsP91yIbI/kt+5qzp59e/+OSVKycJWX3vdjC5h1IPOb66tk/fmzpFn9fiDuu2aZwzCLLlZPa/+Xw9JocKlDpjRt/QGfR9U+nX/1PnlVjOpXUrz/GK1/bIv4HW7Lt1uzS4Nyr70evCMCDoDQp0nfmcmHZ4qkV652r+Oi+7AUyzj3N8nWXr//E2RHb3E0af1pfd6AhhaCIA5FLMzmLidv+QJXdK1bqdsOeFtDxeiAqEOg2tmZdrTTfI2WwMlsmQqHEjVl7TVWYm5O6gM3tczO/q+f06J0sTCBNUDi24WO2d+Lh9FF1DF55RORS6n26xZg86r6d6g1W5NtwVcYtoDPpWLUmoMMHWe0CU3OQp8faOOo1QCyZCV6f65Q1R/v3+D4/My1MaoBfIFATCXLr8lu3UzAldnMPE6f3ErG+n+iTiCU22z+0rWSqYSri/bJpaI7+xlOfRSk2kXtlPWbtsvW/a0ewJh5aJJodDsLanTww3Y7QNi3+IMRZCprFURrLDHlAtplyOH7anINoeBPer1UCHZabfmaeeWiiTVRAf09ewH2dk/U105hff/dK/dqCxR9cApY0vt9yTYGXO4h3hiLzdONushJaRXth9TgW//Eavdmm4LeNrTHjAFUb2LxuD0YKqHhnB1jhLzFm8YjMFsIPcvjaqTkW0HAwfVeeKFcBswT7usVCSpZuit5qeOI6f9WMxbCueJLFRLzaas759Rc7er6qhL1t+/JPp7fYnFqMUBYEARAHPs0Id2ZzAzJumf4e6Smfq7IbLzF8MpMZTyv4wz1MNoaajSAVKdzD8+3eeqGOH1RbdTtJTcKuPSqSWTlO4FVLfHapBNq6pNVc/L0nG4TQ7tOiq747TJ63jXHQ7LpTGqmqgKlbOqrbaEfef0WuYolzr1vPaFS4nU6LH30iyp02PRrVkf0ebixEexLyiC7bJ7l3o9VEjuMPvl7tAktsvS6a6qYw28G/H6uF6v/n09+1929s95TVOoImrah8UfsN01UHxnGldBRVNlQ6LleoPyRuRYf5YiucNMJZdCRzFOT6Slk7PUC+Yg06/7p84vv4k4vzzgOr/oMfRSKbG5pM4Tr6vzRKc5T1R6OzSJTX2m3bX9R6vzRGXEcTHWdZ54L+I40sMauP5uPV6td43a/tjSW19/6/v+2Srn6eXsaV/lAu/7YNrMRcno/euD/l5fSIl8bbq+iEinpoX+vmy0moQMlqGIgOGIAJhrbb+wetLUnbbUVEy2QkBU5y8Op8TQGuphuaypcF0JlNzlGuz9A9mdcGD3FDnDVcid0vjIt6TG9d3nq/iWbHp4kTe09JGv3glPxVI2bXq43Z910932Ww+zuQPS2daIcKi+rCOWtcb3W1gZY/zA9HkDhHrvFtaaTkSSDy0QViyLn7G3zx6Lzsy2tFsdyzg8jeT1vkXsl7vaaDyHjnl7y9Mdn3hen0fDJar9/Xr2uyztn/2aFsuMe5NdpF6QraGhF+bJ5qlF4ZLAonGyuda0H0vUyYib7tRl6kxpmWuCQfBY7EHLVeDcMHWcq9RRrVcP9m6Ng2dmxXVB9lnVRAtl2Yyp8qA7+Fidyrhn9MiLZ/SD1WPn6v1T6/QEJbO934weW29o6N/98wYPdX6Zq84vVscjiYck8LQtG60+06EOS9TnuSHF88TJiPNEgzou3M/zbdd5olMdR+5SIr3O70Q8Xq23cq46juK0j0trff0tC/tnsZazl9Edx7jfB/+BcC+n2Xj/0tHf64tp4iSZoc9F8X7wjMGqEWPOX2XThuh3EDAEEABz7pK883GXuo6slsb5uvQuuvMXt0OvO0MvjJTK+cuk+e++Z99UGHPG62v58U9SPpkmdkmaft5qX4wUqxD4sFmXulkDw3d/IH7v93efdLzrl5YT7l+/4wh6A5J26CW73WBiqVysp0C3U0wwTEGgL+2r9L6ti6hOdPhogp5Fu8WfymuW8DmUiKqM/fp6DoCs7N/hj6yefMumJ79IPW0NvaBDoB54fE64M5G5KvyZdnpPxa0+WCrPujsc0Z26TLarfnYE22RJ5Jh8rsCpx6YLd1yi1lull1PrsgJNYq+eNr1PqiCpBzr3rL/qq1FjCNrj8On9U+t0P16t19pe9efsDDsxAPpz/3TPjAmGNwjE+23Pr47xuL/7qfPE+ymcJxI+hxJRJfXQdnUcJX1edRzdE+c4SnN9/a3P+5dA4OBO2egeayEb7186+nt9MTjt3q1enDMydL+DgMGOANgPOlp/GRpzJ3nnL/ag7mv3tYrfc37ukkD7a7L2h9uyO2TD5bdktR5kvt09aHyX+P1qXa/8RHZ1JR9MPmVn26TppSZrbDsdBCODVECFoxY9ZtsTsdpb2O0G1zrLmrmWoPoyM+PnZW3coMN7rXHn/Oq5Q8z2rX4t/VTs7NsSvW9RVWH0mH6RgUXtox5/cF2TbNztLTGIzX4OPcZd9OuqX5+PItqM9vPr2e+ysX9tskuP+1g6XVbWJ78IebX1gD1ouJ3NjF4V4o7JEj1en5mTnFrGDPC+uDV2aNSBM2pdahmnTeCrnm2Io+eULD54TN7q9T5Yr3v7sd9Gba9e5z3q8dtV0PXUYFDLW4Onq/XaY+0NTf26f351fnlBnV8uuY75S+oc0aTOLwfinV/0GHuRgUV9tvU4gnpIgJ+neJ5Qz6HHuIsMmgG1Lf6DMc4T29Vx9II6jtR6Pc9vPV6vWx1Hr8c7jtJdX3/r6/7pcfF2WsuGOO9j1DLZeP/S0d/ri2TavQePyy7T3j0VHbv8oYHgAeTOl74+t/YPZjonuq5EnzgnTPDJuXMxK0ECwCBSIg3rH5LFpXrg+SZpSrEdy5Sp86RZt9/THYtEleABGLIqF0hzaIxAHQDVeWFY94CamZpVjdI4Lb3zpscs9TovL7fG72VAeCD7KAEEgLgum7ErdZvOBbE7S4rh9KkzdscwpVXSUu1upwdg+IgY5w8WX32D1aY/sGdfZuFPsYeP6Jaj7xL+gFwgAAJAIqZNaMDpUdTMTuyCrNRVNNWUT4XAcDu9ecOzJ00AUHT426Crfp7Yn3nJ3cRqWWk9hz/jAAkgMQIgACRzeK+sXqdLApVUe6U7f8RqY6fblAFAvtDt15dEdOSWmhIVIBfIpmemS1mMzuAAZA9tAAEAAFLhaQMo4m/a4u3tE31QIWt21EqpCpCbVfjjKhHIHQIgAAAAAOQJqoACAAAAQJ4gAAIAAABAniAAAgAAAECeIAACAAAAQJ4gAAIAAABAniAAAgAAAECeIAACAAAAQJ4gAAKD0awFsmlHozSr26ZV1eIzswe1idWyaf0CqTF3MYxVqs/nD9TnU902LRsin88856tvUOeSCnMPAJDPCIDD1mhpeOR70vx335NN1XeZeelynmO5NJSYWXmvRBrW28HMuuXkgqpC1iwvlzJzr2zadFlZP8jfAB1Yn5lub/NEa84wUSSP1dbJe9+sk5ap48y8fKc+nw2uz+dd6vP5ACeIoaBsWm2OzlkAgKHkS1+fW/sHM50TXVcum6mwCRN8cu5ch7mHnCiZLZserjYXaR/Ilh/+RA5Z0+nQAXCZLC7ukpYfb5Om6LcyD+kA+JAsLjV3T+yXJS+1WQGoWYW2tDjLRlEX2DtqpdLc0wJ7dsrqXYP0DdAlf1b4a5ctS/dm8DlLbsr4qbJicqnMLiw0c3rlrTNnZOupC3LazLGNk83frJLZ5l4q3jq2W1aeN3ciFU2VlrkVpoQrKE/99Ii8ak0PcZXq86pCnOV99TncHutzGI/6fP4g4vN5UH0+X+cEMdjpUsANC4sH9/kEAJBzlAAOV5dPy9FuezLgP5OTi3LkSpvs2tYuAXNPgsdl86C9WFOB+FEd/rqlZV1uwt+D1fOkuarCFf60Qpk9uUqaa2fKg2ZOTvR0ypu99mTHmc7hEf76TH0+m1yfz0vq80n4GxI6djXJlhMiZQvnS8OwKqkHAKSDEkAkQAlgtP4oARw6cl2iMGWqCn+TdfDTJX7HZOupHrvEr2icbJ5RpUKh/lObLNl/KqIk0E1X45wjywp7ZfvBA/Jij5mdx3wPqPdtbrF9J+0SQAxtpoZB8LisfaJV+CYGgPxDCSCQDYf3ypKlWzy3tXtMEaxFV4/0/n2ohz99IVmvwl/uSijHyQor/OlqmgdkpRP+tJ4LsnL/MXlLTxdWyIrx1lykaMIYE/6Qh9pklz43lU6X+llmViomVssa0/5502BvkwwASIgSwBzwVS+XDZUjxb/v+7Ix7jW+U7oWu32er2K21FdVS2XoOq1LAu2/lM2vvx/jF1vnuczdCAH/dlndesnci2W0Wt9/k5VVd0qZeY5Ae6vsflddXt/7PWksz3YJYInU1M+QuunlUuaUpCmBYLscfe2oNB2OvyLfRBU6Hq2UytLwzsZdzl0qZ0rbfLOqpX7RdLW8PVvUsi0v75Wms+a+m1pXQ12lLJ5m1hXsFv9r++TCohglgDE4pWO2BO3jQm3o4tHVK5u82+haxip9e3dS+L7aps16m+oXyMqFdmcdet7qGNuZ1usZyby+OWtPNH6mvFelXuhEJXzOY4LH5J7WC2ZmpFRLAJ3HmbsROs68KYtVCI30YHWdPFuq2wf+Vu6orpJlpabEUofW8+o5o+ZZi3kVjZPHpkyWOepxTo+aHb1B+aejR+TVrJRYlkjDsvmy+K7w+5zQpeOy9h9N6dBY9Vn7TpLP5wvq89lp7mquZaz2ge+pz6dz/331+dQljg+oz+dc8/lU81bHKIX0jVWfz2+rz+do1+fzkvp8HlCfT3/EZy6qXWOX1Kh9rlP7bG97t1qP31p37G8fdV56QJ2X/uwWKUtlfZr7tQmVpJrnMftmUc+x5V/U8e9+jdJZX5ZezxDn/JFGLYSaVY3SOM3ciXVOAgAMGZQA5kDHh21W+5jKqtnxu0dXgUsHtoD/FxGhwO55c8N8d/jTRkpZ+SLZkPUeOe3wuGF+OPxpZeXV0vjwcqm7xczIFn3hseMhadTBxBX+tLLSclm8/CFpXr8gRvsUdbG0SgWqZ2o9YUVzlkvYxfltd0iDXn65K/xpetlnGqLXZ10g1YbDn6bWW6nWEwp/g0RZ2QxZ4wqQuqe/+lULVPgMX4DqeWs8v/b38fVUaqr0xXa3HH03B+FPmVJ4k/V/R6AzfvXOz3rti/nSsbltC5jUTfK3OjxaQU/TbRSnqvAXMa8qus2irub63lw7JLrPF77CUnl2ru59tMjM6aNbve9zfykboz6fTkjS9+9Sn89l6vPpCkh63hp3rzL687lMfT6/oz6frnCklY1Wn88G9flcluDzeVelbPqBOs+Ewp+mptV6Nnw3cqgSe13N+vF6mzJZn3brSCuwrvmueR4z29Yt50Lhr2/ry+z1jHD2QzkaVP9Pu4NhWwAgDxEAc8HpgKW4Qr4WJ6zVTLpT/dslRz/0lsz5qhebkrwu8e/bLkt++H379uPXpMWqUThSFj/8rYgv7UvS9Ip5nOu21t9l/h5fzQNOyaF3fWvV+vzdKnR6r036yOkwJInS6NRZs0pdLLnDWAzRIcdFh5q4yxfL4jr3xZa6iEtYIjfITCv39MioVap5kSqrwvvY59dTvZdjb9P/fyqdOSoFmHSzHZzO9iYoAuv5TOzV3yR39Dkn9ciL+3fLPT/13pacMb3AJKTCm1XCqJd5U7brRQorVKiLmCelMt9dXXX8TE8bxyXu9R4LWuHWN7lKHstSBhwQd8X4fKp5kSrvdn0+l6nPZ5LSysQhxx38IqiAVecZtkL/gJH8RJc0VKnnXfltHVjNfbdPulyljn1cXwavZ7TL8s5x/YVyi4xNsTOYQ7uPi1+HRiWwZx+lfwAwhBEAc0IFsmMfqP9VWLs3xhh8JbOlzio8aZN33IUnav7KypFqwq5yubHNFQ4vv69C3nYTAu+UuupYVxlpcrYjxvo61Po2htaXLSNlnKv0TFdLDLeJ2ylrt9kXGFEXFxOrpS5U9UjEv0091tWWbu22dvMXddGzKPGg1HpZa7l1+8Vv5lluGxlazldf6b3AUttpr2+nbPG068uSs62y2rU/1s21TynRr+W64+GeGa0qWlusHv9CnH3Myutp3stgt5yzZ2RZkdxhFQD2ysefWTPiUH9PJZ/1gw4V4OzqpT3yRsDeKPe8jz63ZrkUyWOT7QPCbuPoHdLi9PkjsliFQB0u54ztawK8LE3/qN7ff9C3ndLi/t1JV1205rtuTvVPrVN9PiP/3pTm51Ov44WIz+cL6vP5vrmr6RI0/f9Y9fl0nTb9Terz6Vr3Wte6K+clOt7VOtSy1nKedatwNXeG50e0Qz/Xf+8W/0F1rKvtCu3nC97zROJQpUKndVpWz+PZZjX9c281yz6vL53XM6FiGZfq8JbqPLXxCbWN6hzBEBIAMLQRAHOl7Yz9RV4+OaqKjW9ShfXrtP/YW962KCNH2b9at/8yTns7J1iqC5jbp6Tw5Z5E0vVlW5dcML8ga7qEadP6BbKmvkJqJqqL5cP2BUbkxYXvXm91Kl0Nc4MzELu6bXD3vllaLBPMZCTdVm2j067tbJsccYcj13ITPMWe7bLlJafN0GU5tGuftLj2YbDwH1MXmGe7JLRpwXZ5R4Xoc4HowJqt1xNesUoq3fM+/CwiqRaNlTlW4V+bbI03DuH5TqujG1/ZWJlizxmS/CfV57PT9fm8pD6fnerzeTHG5/OeiM9ng/p8/kB9Ns1tg9POTxsd//Ppb2oKt6NTIXbzQfe6bpGxY82kZoXcJtn4njr+71HnpO82yKbvqvXpKqjmIZakoUqdL15Qz6PW6y7x6/C0/VP6uL50Xs94OgKfmikAQL4hAObM+7LLqoJ5p8z0/Ig7Wr52uy7l+0CORLS996lApgW6PrH+j6nriv2rb/GoPl+Yp7S+rLosTS9H/BJfWi6VC2ul8ZmH7ACiAmHNRG+9WW8gSyZ+laZgwBssY4WjcNVGI2clXNnULRci+z/5nbvKmVe2Xs/cckrMCuX2m60Zcai/O03shpqbTZu/wgpp/madvBfzlt6g9oOT+nz+zkw6PFUivdLroTQiyCXQcdEdeIplnPs4t9ru2QFMt8vT7Q7t0rz0+JsiO3qJo0/rS+/1BAAgEgEwh2J2BhO385c8oas7rtspW050e4JgiAqEOgyumZVpTze5a5OWnwbu9XRKzCYWJqj+WHSz2Pn0c/koQVNBDFfq85lK4IriDlEqjFmdzZi7Odff64vNV5btHr4AAEMFATCXLr8lu3VzFVdnMPE6f3ErG3mrmYrBqbbZfSVrJVMJ15dtE0vEd/ayHHqpybR72ylrt+2XLXvaPYGwctGkUGj2ltTFGE/Pc4sz1EKmhmEVyOy8nqY6bw5fn9O9dqO5RNUfp4wttT8nwU551ZozhDg9mOohLFydv8S8JRzovo9SaivWf7zVGNXnM9SWLtYt9eO95m5X1VEX3wPeNr+Bg+p89EK4DZ+nXV0W9Pf6EotRewAAMOwRAHPs0Id2ZzAzJumfe++SmfoaJLLzF8MpMZTyv4wz1MNoaajSAVJdNHx8us9VfsLri26naCm5VcalUxsrKd0LqG5v1iCbVlWbqp6XpeNwmxzadVR2x2mT1/GuOxyWS2NUNVEVKmdVW20J+87pHc9RLnXqee0LZD10wvxBNwxEurLzel6WTqsEJYdVRE37t/gDvbsGiu8cglexPZ3ypi7kLJ3cz718qvfOXet79HSpr4x4/8fGPAH1i473Ij6fetgGz/ao7atUn88HEh/vlfP0cva0r3KBp2MZp81cFDV/9+vqfNSp2/DZ6/Esl239vb6QEvnadH1yT6eEvyI8EHySIWIAAIMbATDX2n5h9aSpO22pqZhs/fIb1fmLwykxtIZ6WC5rKlx1hErucg32/oHsTjiwe4qc4SrkTml85FtS47rG8lV8SzY9vMjbIUEf+eqd8FQsZdOmh9v9WTc9LIH1MNuJj8K/7J9tjQiHdjVR97LW+H4LK2OMH5g+b0BS793CWtNJSvKhE4aELL2eh45Zxdsy495chYULstUMwTC7ap5snloULgksGieba037uESdqAxqPfLiGV2MWijL5ur9GydTPEGwSB6cOlNavhk9dmBfHTrp7cVTd7TidLKix6fb8O1wCXy/61SfT3cp2Gj1+fxOxPY1qM/nXPX5TNT+z1rOXkZ3HOPuWMZ/INzLqadtoF4mYj3u5bKhv9cX08RJMkOfi93n2SSs3pHNj19l07JzrgUADAwCYM5dknc+7lLXydXSOF+X3kV3/uJ26HVn6IWRUjl/mTT/3ffsmwpjznh9LT/+SZaqOV6Spp+32mGnWIXAh8261M0aGL77A/F7rxP7pONdv7SccJeuxRG0e950O/SS3W4wsSyFEd1OMcEwDIFQ13tDV1Zez8MfWT3dlk3PXVg4feqAPBXUIVAPrD4n3FnKXBX+rB40g/JULqtH5tr5I2acQb1/VdI8190BzBx5dnKp+NSf+z7GYQT/Ue9QEJES9K7ZHw5tV5/P91P4fN6T/vEeOLhTNrrHWkj4WnSLP+l2pKm/1xeD0xOw1XtwRnL5ww8AINcIgP2go/WXobGdknf+Yg/qvnZfq/g91wFdEmh/Tdb+cFt2h2y4/Jas1oPMt7sHje8Sv1+t65WfyK6u5IPJp+xsmzS91GSNwaeDYGSQCqjg16LHpHsiVrseu93gWmdZM9cSVBdNe/arv2VxfKrDe61x9fzquUPM9q1+LYupeMBk4/Vsk116XMTS6bKyPncXg6+2HrAHRbcLA41e6QgekyX7jwy9tn8RdMi95+Ax2a6CrqdmQK8ZHF7toz2WYDbpcQHVsdbULoGIMBK4pMen+2iAe79Vn8/t6vP5gvp8qkDk+Xxa22ePn7f69XifTz0u3k5r2ZBL6vhtUsdv1DL2a+ENnGqd7+t1NMnGn3trBPRdf68vUoXULyxWx/lx2XXYzEpBxy5/aCB4AMDQ9qWvz639g5nOia4r0V/QEyb45Ny5vrZgAzDwSqRh/UOyuFQPPN/kHcA/B6ZMnSfNut2f7jilld4r4FK5QJpDYwTqAKg+jxn1EDq81axqlMZpfTheZ6nXeXm5Na4qA8IDwNBECSCAPnDGdiyWxc8siN2ZUBadPnXG7himtEpaqscN6cHRkUsR4/zB4qtvsNpaB/bsy/jHGnv4iG45+i7hDwCGKgIggL4xbSYDTo+iZnZuXJCVujqomvKpEBgeQH1eP/ekCQwtOvxt0FU/T+zPvORuYrWstJ7Dn/PSfgBA7hAAAfTd4b2yep0uCVRy3Tvg+SOy2LSZA5C6gAp/SyI62EpNiQqQC2TTM9OlLEYnXQCAoYU2gACAoc/TBlDE37TF29sn+qBC1uyolVIVIDer8Me3NwAMbQRAAAAAAMgTVAEFAAAAgDxBAAQAAACAPDEgAZDqnwAAAADQ/ygBBAAAAIA8QQAEAAAAgDxBAAQAAACAPEEABAAAAIA8QQAEAAAAgDxBAAQAAACAPEEABAAAAIA8QQAEAAAAgDxBAAQAAACAPEEABAAAAIA8QQAEAAAAgDxBAAQAAACAPEEABAAAAIA8QQAEAAAAgDxBAAQAAACAPEEABAAAAIA8QQAEAAAAgDxBAAQAAACAPEEABAAAAIA8QQAEAAAAgDxBAAQAAACAPEEABAAAAIA8QQAEAAAAgDxBAAQAAACAPEEABAAAAIA8QQAEAAAAgDxBAAQAAACAPEEABAAAAIA8QQAEAAAAgDxBAAQAAACAPEEABAAAAIA8QQAEAAAAgDxBAAQAAACAPEEABAAAAIA8QQAEAAAAgDxBAAQAAACAPPGlr8+t/YOZzomuK5fN1GDgk5uefk5uHOOXnhXPyzUzN6mZj8uYpZXmTti1HY9IzxFzJwUj1DqL7i6V6ye3ypWtb5u5Q9D4JTLqyW9IgbkbcvFncuXpZrlu7gIAAAAYXPKsBHC8fHmM+u9iZ1ohpaC0zEy5+eWLNMKfDk03qvCnFYwZGx2ekCId4l+RMU8v4TUEAAAA0pRfAXC8CV5pBsDrux+XiyseMbcn5epFNTPN55DzrfKFXk6Ccu1XrUO7lOx8s1wJvR76tjX10lQAAAAAAyavAmBB5QwrAF473pfql5mVIop0yOdP67D0uPTs7jDzAAAAAKD/5FcALNVVMIPynwH7fkZm3isj1H99C5HInAng/WlitaxZ3yjNOxplU32JmQkAAAAMPQPYCYzpkOXiVrm49W0pmLlEblzwDRlhLu6vX/TL1R89L9fO2/dDnA5ITtrLRYvX0Yt3/vVU1xehoO55GXW/yNXnHpfPEz02Tscx6XSUUjD+PhmxqE5uuLs01N7t+smfSc/WbHe04pMRdX8lN/5FpRSEwlVQrWu39Lz2tlxP8pqI3CdFW1fIiHT2LeL1D61PvadRy6vXctQC97YlEPNz0bf9q1nVKI3TzB3plpZ1TdJ01twFAAAAhpCBKwEcXy03qIvx6zJWblKBbNRSdxhQAWFMpRQ9+bzcNN7McJTZ7fiuB+Ndtceromnmn+yUgqdfSX19EexSxEDS0BC74xi13Sm1/1OBRb8mT66wOo5xd3ZScPc3ZNTW5NuZOhXeVDAuuj8yYKn13r1CbcPzUlTnM/Oywe7EJfL1D60vzr6lFP5i6u/9AwAAAAavgSsB9JSQBeXajv8pV4902OFovLpo/5sVdkCIKNGxS+BK4w/BEK+E0DN0Qerr8zIlXQkfE4fZ3+RDRzgllXo6YjudkiwdZrI05ILzespFv/R4SkB9UjDzr6RogXqPfvWkXEnYbtG8LilsU2h9Zt961L5Z1Htwk3oP7P1ONExH6uvSsrJ/ugroo9OlUj1NYM9OWb1rMA1tAgAAAKRuwEoAQyVk+kJed4wSCjnK+bfVxfrP7PsRQyYkbccXp4TQ6QAm3fV5mF5E45c+xmfvb/L2hwV1f2+HoFjbKR1ybffzcuW5rWp7s1sN9Pqv/i2i+qta7xG1rqcfSRL+0qBCeJEJf7oKbSj8aeo9+Pxp08OqVMqNWS6V69P+nW2VjU9skSVLtxD+AAAAMKQNYAA0QSBekDkfq5dNn12N7+LRuG31Rky3SxWvB70X9ZmtL0IoXKYbiHwy4i/U+hNst+0+udEKSH7pSVS6pcJS4udJ3XX/UWs9Bff/vRTV3ScFWataGoN5/eTk7jjtJzvk871+a6rgL6rjB/E09Ov+AQAAAIPcAAVAE+RSaEvnYdoNxh+CwXneyJK2DNcXwQ6XaQ4Ab0lx6AhnnMKT7/bfuHp6TL/nfibXLpbKiPt1m7hXZMxWPdC6bhuX3cDklPomLEENmNcoW4Pl9+P+AQAAAIPdAAVAp0OWBEEn1qDtKXcAE1nSluH6PJzSxyQhLpZUh45Iun85okJSjx6j8LknpecNvwpLQbk+JhyYRq1QQck8dEga7vsHAAAApGhgAqAJRImCzohFdoct7tAULkGKXQWzwDxvVEhLoe1erPV5pViKF0Oq7f8G3Hm7jWHP04/LlRU6MG1VYUlt/90rstpTZkFpgmI3p5postc5kxLCfto/AAAAYLAakACYLMjpHjOL7tYT3uqWiTqAsXp7NL2KRga9UAcwcRTEWZ9HCqE1nlSHjnCqPxbc/1d2kI1lfHZLqwpmJng+3TmO0yYvUWhzJAllTns8ubsuzjAWPrlJ98qpJB8uoyyl6ptZ2T8GggcAAMAwMUABUAcikRFLX5FRuh2WdU+zx79zhoe4tiPWUAClcuMi1zJ6CAc9rtz9pXLtZNCaFbsDGPX//c/FXJ8THGOvz0t3TjLCyQrj1fIzk5UcOe0PvT1b6mASeh7H+Vb5wvSCWfT04+rvrufW69KvzZNZLK3SvXIuXWGNvWdVg3SvT9ED0RfFCdVe5+U/Q713et8bzz6eb5arJ/WEeg/1+Hvu104PAxEa/sIvV+P2zPm2fOE8x98s8T5/5PuRpf2rqbOHgNDKFs6Xhon2NAAAADDUDMA4gGacOwnKdT0Yt3XBH+36GzHGZvOMHehmDytwrVKP+SbWdLiXSWd9fhXuKiMGH3dEjEkXkxl/ztwLSWvsO6+YYwJ6xiuMdv3kz6Rna/aGgCiYuURuXBA5KHuEPuxj9LiK7nEOY7Hfy9i9hBoJXyPvGILZ2L+aVY3SOM3ckW5pWdckTWfNXQAAAGAI+bKv/PanzXRO/P73/26mHH8uf/LwDCn4+J/lkx/8VP5zwlQVAgtDRZE64PT+6BnpffdTM8el8x31+L9UF/OFZoYKbm/8s/Q8v02ufSbyx3OWqr+1ye9fecd1MW+vTw7/L+l++UDE+lQIPfmmWt8muXoqxvo8zskXJ78iBRWTpeAme871i375/d59cq0z8bL/9ds2a72R2331wDn5LzMn5LPfyO/3+KNeFz2Q+dV//V/Ss/sX0cv0wX91/ka++H//Jl9c/or8UenNat+cbTT7p9bZ+y+/SBo4/+u3P5cvvuKTP55U5t3mt1vlPzyvz6fyH6H1hV9L+734Z+l+2n4vE9Kv0clL6r0YF2N7/03+3bW+bOzf2d99Wcq/WiplatHAnlfl+V9GfqYBAACAoaH/SwBN6Y3EKuEDAAAAAORMv7cBdDpkSX8wdQAAAABAX/R/AEzQkycAAAAAIHf6OQA6PWKmMCQCAAAAACCr+jkAZj6YOgAAAACgbwZgGAgAAAAAwEDo9zaAAAAAAICBMSABcMIEn5kCAAAAAPQXSgABAAAAIE8QAAEAAAAgTxAAAQAAACBPEAABAAAAIE8QAAEAAAAgTxAAAXhNrJZN6xdIjbkbyVffIJtWVZh7AAAAGEoGZCB4PQzEuXMd5h5yY7Q0PLJMFheLBPyvyerW9838dDjP0SUtP94mTYzpn0CJNKx/SBaXmrsRAnt2yupdQ+AFnLVANi0vl7Jgu2x5ea8cOmvmu+gAuGGh+mCd2C9LXmozcwEAADAUUAI4XJVMkRnqGl0rq5wctzQHiflmVcua9Q3SvKMxdNOlYw2zSmRQjWapgltoGzMtndMlfzr8iQp/T8QOf1rHriZZu6dbZFqtbKovMXMBAAAwFBAAh6vLp+WoukbXAv4zcsieRMp0iV6jbFg+XSpLTZI2ykrLZfHyh2SDDoITzcwhT+3vo9NV+OuWlnUq/Jm58egQuOWEei0Wzh9GrwEAAMDwRwActi5J0yvflyU//H6G1T/zW82q+NU5Q1QQHDfOKQG7LE1PbJElS53bfvGbv/QHX9ktZiozvvr51v4G9uyTpjglf5EOvaT3sVgWP1o9uEpDAQAAEBcBEIhSITOnmUkteFzWhoLdTlm7rV0CQbtd38bDg6Nd34QybylleiqkXrfpU/u5Oa12im2yS1cFLZ0u9bPMrFRM1NVqTXVaqpACAAD0KzqByQFf9XLZUDlS/Pu+Lxvj9pHhdLDygWz54U+iqtz5KmZLfVW1VIau67sk0P5L2fz6+xL9yoU7fIkl4N8uq1svmXuxjFbr+2+ysupOcXJEoL1Vdr/7lsi935PG8lx0AlMivlkzZOWiW6TMVcUyEGyXo68dlSZ3sNLt25aX29NWxyNdUrNqvtRNK5Yya2a3BE74ZfNLbd7XJtPldFu4Z3R1SJt/2xYV9MydlFXImh21UmnupdoJjE9t88pF5eo1MTOcbdytttFTMlciDWpfFqt9SYkOsU+0xvjsKOZ1yqijGue1SqNDmJpVjdIYCti6ymlTyqWOAAAA6BtKAHOg48M2Caj/K6tmx68apwKX3UPnLyLCnw5z35MN893hTxspZeWLZMPfLZeGrBaa2OFxw/xw+NPKyqul8eHlUte3moWx6dCw4yHZoDscidO+Tg8zEPO1m1ZpLdsYCnGamp5Wa7XJi9vZTabLKZXLG6xOX3JLBUarzaE7/GlmG59pkDWR23BbiuEviZoqHZK75ei7GST8sx/K0aD6f9oddDQEAAAwBBAAc8HpgKW4Qr4WJzfUTLpT/dslRz/0lsz5qhebkrwu8e/bbrXhs24/fk1arE5dRsrih78VcbEdbu/nvq31d5m/x1fzgFNy6F3fWrU+f7cKndnJGGERpWvxBI9FlMqFuANcBBUe6+JWKUxjubOtsvuEmbYUW6G0eYc9/p0v652e6A5naqUyYZvDYhVEc9HhSomMvU3//6l0ZlQKd1neOa4/mLfI2BS37dDu4+LXoVFJp80hAAAA+o4AmBMqkB37QP2vwtq9d9mz3EpmS51V6NIm77gLXdT8lZUj1YRd5XJjmyscXn5fhbztJgTeKXXVo63ZfeJsR4z1daj1bQytL1ucnibDAif2R7evU/MSV7nslpZtO+1l1h23SlsdZQtnJCiJSn05q4MTE1LCnNK4RhUEq6UmW2Fs1gxvhzOu18R6PcxsK4iGOlxxdzqzU1rc26qrY5rlQ7d41T/VZ3ScXnewW87ZMzJULOPGmclkVMDeaLZ9SIyNCAAAMIwQAHOl7YzdC2R59Bh8vkkVVgjyH3vLe1E+cpQdjtp/Gae9nRMsVWC5fUrfe15Mur4smzhJZkQEndWe9neXpePwXmteIv5tTeE2gipMbNYdkYTEL4lKb7k2FVJ2ypY97gAWVjZtujQ+05CVEjm7CqajXba4XhP9enhKI0vL5WvZCp5Z0hH41EwBAABgsCMA5sz7ssuqgnmnzPSMyz1avna7LuX7QI5E5ByfCmRaoOsT6/+Yuq7YgaR4lEywZmQupfVl0zhvNUz/sdQ6DUnGG0BSL4lKvtxlObRLBdKluiQuXG0xLBtDIDhVMI0YJXGHjrWbKQAAAKBvCIA5FLMzmLidvyA7uuXCBTOZlsTLdRw21RbXRYzvNwhL5PpbX8cgBAAAQP8hAObS5bdkty68cXUGE6/zF7eykbeaqRicapvdV/rYZiss4fqy6UK3pzplZZWnaDRj3iqUqUu8XInUxOr582ybbNyWzRK5y9L5OzOplRZHleymvX+3jUyjVLJLLuiSzRjrTU+mwRsAAAD9iQCYY4c+tDuDmTFJd9pyl8zU1/KRnb8YTomhlP9lnKEeRktDlQ6QIoGPT8fp1CN14fVFt1O0lNyqa21mjzNkgGNabcRwD3pswAWyaUfitnWVixaEOmDRj6/zDNreLu/E6VUyneVqVj0kjbrnTz1ExET3m1EiDYvcgSy13jOtTmZC+6T207V/3iqe5dLoek1S27/IEKkHZvdus8+zD27Osqn34ulVIl+brj8k6fQiag95YQ0Er/YVAAAA/YeB4HPODNIurbLl2ChpnH9nwgHiax7QA6/rKT0sQ0u4Z86Su6Thvy8yQzbEHjw+kjMgffyB4F0DyHer5/y5ek7zdvkqviUr9diA1r0sDgRvBh1PSvdk6XQGk+oyimfQ9gyX89U3yIaFqSXfRIOnewc89/Iup4eBeMjbE2hMCQZNT7avg2ggeO/ry0DwAAAA/YkSwJy7JO983CVSXG2Fv1idv7gdet0ZemGkVM5fJs1/9z379rAT/nQYSx7+UnNJmn7eajqVuVMaHzbrUjdrYHgVCv3Z7n/k8N6IoQ1i039Pt3MVHWASDx8RW+RyHbv2ScuJ5ONf6OEqNicITNZQEmY6Utn0Sa7900M6xBp2wq1bhdQEY+YdPuodCiJSoiqehz+yttO7Tanx3Vtu/UiQeYc+xTLj3nilkwAAAMi2L/vKb3/aTOfE73//72YqrKjoFunpyZ+u4z+98IWU32sP/RDw/0z+vwtX7T/EdFV+8+vDcqynQIpHjpOyPzGzVfALtB+Q//HK/5VfRL+kMd0yrlJq1RP0Bn8lb8Rb57+flTfaP5Wv3FgiXy12VtYlfv8B2bz3kJwaNVU9h8iZ94/Lb1JcbzKfnv9Q3jjRLpf+/U9lbGGxFBaaP6iQEzhxWv7Pyz+V/++NKxL6hEy4U/660l1i9KqcuaVMvlpqtjfYLi3N++T5/xsRxjJdTv5dfnPkN/KvJ3rkK7cUy83yJ95tDP5O/s8P9qltPB/expiuyC/Nc4TWqQSC3dJ2/GM5dcq1j/qxB47KsU9KZGpZ5GtyWP7Hy2/J679O9AaobT7Qrpb/04jlzfoOvS/veNbndkUCX5kktdNvl6lfaZc3TqX6RlfI8u/eJWXB47J5+4Ukr0XYp6f+Q8pn3i5lZht7P3g/jXUCAACgL6gCisHPU70xjSqDmS6Xl5xqqKm/TnYV1z68rn2pegoAAICMUAUUQ0zq4/x5ZbpcvrgsTS8fl4Ae2/CZBbE7BXLR7fh0+8bAngTVUpOwh4/olqPvEv4AAAD6CwEQgO1sq6y22meWS6Pu/dTMjhTqxOXE/sxL7iZWy0rrOfyUygIAAPQjAiCAsMN7ZfU6XRKoJBgWQneAk2qvn14lKkAusHsODbbLloyeAwAAAJkiAALw0iWBT+yVQ3FK5jp2NcnqjIPbSKlfWG6VHq7V6zBzAQAA0D/oBAYAAAAA8gQlgAAAAACQJwiAAAAAAJAnCIAAAAAAkCcIgAAAAACQJwiAAAAAAJAnCIAAAAAAkCcIgAAAAACQJwiAGJpmLZBNOxqlWd02raoWn5mNATSxWjatXyA15i6GgEp1HP1AHUfqtmnZ4DqOfPUN6tiuMPcAAEC2MBD8sDVaGh5ZJouLRQL+12R16/tmfjqc5+iSlh9vk6bot3KAVMiaHbVSae5pgT07ZfWuQbOBaSiRhvUPyeJSczfCkNkvHciXl0tZsF22vLxXDp018weNInmsdo4sKxTpOHNMFp+6YObnM3Uc/SDiODqoPm+vD47Pmw6AGxaqE9iJ/bLkpTYzFwAA9BUlgMNVyRSZoa6dtLLKyYOvVEYFBl16Z92G4a/8vlnVsmZ9Q3gfdUnl+gXSMKtkcJVWZuN90CV/OvyJCn9PJA5/U8ZPlc218+S9b9aZ2zzZPHWcTDF/Dxsnm0OPSe22ebxZNJaisTJHhT/NN3msPGhPDn2V6v0zJXjNy4bXcdSxq0nW7ukWmVYrm+pLzFwAANBXBMDh6vJpOaqunbSA/4wcsieHiTbZta1dAuaeBI/L5kFTSqZL9Bplw/LpUllqErhRVloui5c/JBt0EJxoZg55an8fna7CX7e0rFPhz8yN5cHqedJcVSGzC00SsxTK7MlV0lw7M7ehrKdT3uy1JzvOdMqr9mSeU8dRk+s4uqSOo0FS+ufQIXDLCXXsLJw/jI4ZAAAGFlVAkUDuqoCGqndpw6iKV82qRmmcZu4k4N+2UzYejvWCequ35roKaF/fB2f5ZNs5ZaoKf5N18OuVt84ck62neuS0/kPRONk8o0qFQv2nNlmy/5Q9PyanGmevbD94QF7sMbPzmO8B9frPNe/f++r92z4cq0qaYyJ4XNY+0Sp8cwAA0DeUAGJATCjzlo4NDxUy0x3+9AXr0i2yxLrtlLW61DJoh7rY4a//9e19qJB6HR6TlsCOkxVW+BN569gBWemEP63ngqzcf0ze0tOFFbIiUTVORJkwZjgeR5HaZJeuClo6XepnmVmpmKirYZvq11QhBQAghBLAHPBVL5cNlSPFv+/7sjHuD/JO6doHsuWHP4mqOuermC31VdVSGbq+65JA+y9l8+vvx/gFPNzhSywB/3ZZ3XrJ3ItltFrff5OVVXeKkwcC7a2y+111WX7v96SxPBslgCXSsGq+LJ6W4gWr+9d+3cbsGV3NMB5d/bBJmtxtz1zLWKVT704K3z+xXzbrkq76BbJyoW67Zs9bHaP0yzdRhZxHKz3VOQPBdjn62lFpigxxEdvp37ZFBT1zJ2WZlQD6Zql9WaT2JdSZTLfaJ79s3t0mHZ42eX14HyLp9oPLy5Nv4/iZ8l6V2rBEJXzOY4LH5J7WeB20pFoCGO7wJZaOM2/KYhVCIz1YXSfPlgblqZ/+Vu6orpJlpabEUofW8+o5o+ZZi3kVjZPHpkyWOepxTlvPjt6g/NPRI/JqVkos1fu3TL1/d6X4/l1S798/mvdvrPp8fifJcfSCOo46zV3NtYzVQcx76jhy7r+vjiNd4viA+uzNNceRmrc6Rimkb6w6jr6tjqPRruPokjqODqjjyJ/CicU5ttIopfaWxsc4RwAAkKcoAcyBjg/brHY1lVWz43f4oQKX3UPnLyLCnw5z35MN893hTxspZeWLZMPfLZeGrP6YbYfHDfPD4U8rK6+WxoeXS90tZkY23JbiRWuWlZXNkDWuYFY2rVbqVy2QDSb8OfPWeEoXStQFZINseEaFsTht+ZJ1UV+5vMHq9CW3VGC02hy6w59WbO3Thmca1H5FbEOW3oeaqnL1b7ccfTfxBfyUwpus/zsCnfGrd37Wa4eU0oHuoOUm+VsdHq2gp+k2ilNV+IuYVxXdZlFXc31vrh0S3ce9r7BUnp1bJy1Ti8ycPrp1gI6jMeo4cgXIsrvUcbRMHUcm/Dnz1ri7FdXH0TJ1HH1HHUeu8KeVjVbHUYM6jlLpvObsh3I0qP6fdgfDjAAA0EcEwFxwOmAprpCvxbn+r5l0p/q3S45+6C2Z81UvNiV5XeLft12W/PD79u3Hr0mL1anLSFn88LciLoIuSdMr5nGu21p/l/l7fDUPOCWH3vWtVevzd6vQOTDXmtk1rdzT1b1WqeZFqqwKX4jWrHpIGpOUkkWFxrOtsvuEmbYUW0GxeYc9npkv651Y6A5ndEA1d2MqVkE0Fx1olMjY2/T/n0pnklKVSTfbwelsb4IisJ7PxH6am+SOPuekHnlx/26556fe25IzpheYhFR4s0oY9TJvyna9SGGFCnUR86RU5rurq46f6WnjuMS93mNBK9z6JlfJY1nKgAPirhjHkZoXqfJu13G0TB1HSUoro0NjLJflneP6BHiLjE3xs3xo93Hx69CoBPbso/QPAACDAJgTKpAd+0D9r8LavXfZs9xKZkudVXjSJu+4C0/U/JWVI9WEXeVyY5srHF5+X4W87SYE3il11aOt2X3ibEeM9XWo9W0MrS8bLkvTE+H2cC3mwsyiq3WF2sqZm7vaoQpWqyP/vq3d/DFFeh3rjod7PLSqhG2xehgMuW2kXXIzsVrqXG35dIct4bZ8W6y2fI7KRd7Bsw+9tD900RnmlMbZg9bXZCuMzZrhHT9Q7aOznVZ7QzPbCqKPOtvZh/fBY6SM0+sOdss5e0YcRXKHVQDYKx9/Zs2IQ/09lXzWD/Q4gXb10h55I2BvlHveR59bs1yK5LHJ9htht3G84CnpPH3+iCxWIVCHyzlj+5oA1fv3j+p9+Qd9U++f+/cj3QmMNd91c6p/ap3qOIr8e1Oax5FexwsRx9EL6jhyDzN6qzmOxqrjyHX68zep48i17rWudVfOS3UQ+mIZN85MJqPOGxvNZ31IjKUJAEA/IQDmStsZ8ev/y6PH4PNNqrCqTPmPveW9uB45yq5K1f7LOO3tnGApUnb7lBQvmBJIur7hw3+sTV0Qdkko7wTb5Z2zIucC0QnXd2+4SptWqYducMbKUzdd3TKktFgmmElbm7ro3Clb9rgDWFjZtOnS+ExDVkrk7CqYjnbZ8lJb6PPUcXivtzSytFy+lvVSwOEpVkmle96Hn0UkVWeMwd422RqrXaB2vtPq6MZXNjbGmIdDh/+kOo46XcfRJXUcdarj6GKM4+ieiOOoQR1HzpiF6rahwfX5HR15HEXrCHxqpgAAQF8QAHPmfdllVcG8U2Z6mriMlq/drkv5PpAjEX0Z+FQg0wJdn1j/x9R1xQ4WxaOSXjAlk9L6hoVuuRDZr8jvuuKUbKXbM2asKmmX5dCuvVap5dpt4WpoYe4SuUw5VTCNGCVxh46lWbqTE06JWaHcfrM1Iw71d6eJ3VBzs2nzV1ghzTEGqLdvVTLbevBQpo6j35lJxycJjqO0eihVx9FYMwkAAHKKAJhDMTuDidv5C4amxG3gOg6bamjr9tslwo48KpFzSswmFiao/lh0s9gvx+fyUYKmghiu1HHk7n00Bl9ZNnukAgAgfxEAc+nyW7JbF8K4OoOJ1/mLW9nIW81UDE61ze4rSdpepS7h+vqD0/ZukPBWC22XLe42cVG3vRFBvkRqYvX8ebZNNqbbbjGhy9LpLo2JqooaWUU0BWm9D11yQZdsxlhvpNO9dqO5RNUfp4wttdcd7JRXrTlDiNODqR7CwtX5S8xbwoHu+8hpezdIeKuFquPI1f4v+hZ5HMUTozQfAACkhQCYY4c+tDuDmTFJd9pyl8zU1+SRnb8YTomhlP9lnKEeRktDlQ6QIoGPT8etepWq8Pqi2ylaSm6VcenU4kpZZHjRAzy7d7hEfBPjdJ/aDzredbffK5fG9QukxrM9avtmVcua+uju663eQ3XPnzGWaVjkDmTJe8/UyhbOcHUao18XM6l4q3iq7dQ9jZp7elxAd0c2TptHr768D86yKfTKaNq/xR/o3TVQfOcQvLrv6ZQ3dSFn6eR+7uVTvQfu2tuj1ftXGfH+jY33/uVex3sRx9F31THh2R61fZXqOHoghWEg1GO/Nl2fjFI7bmz2ECnWQPBJhmwBACCfEABzre0XVk+autOWmorJVjfqUZ2/OJwSQ2uoh+WypsLV02fJXa7B3j+Q3QkHdk+RM1yF3CmNj3xLalzXZr6Kb8mmhxdFdfueLZHt03RHK04nK807HpINj04auNKMyOEcStXF6zMR27d8ulQurPR05uKrbwgPPB1jGXePnYE9R+OUeLTJEc9QEvp5ws+x8l7Xm3T4qLcXT93TqFmfNS6gma1LTVpejt2bZ1/eB3vZYpnh3qaYLshWMwTD7Kp5snlqUbgksGicbK417eMSdaIyqPXIi2f0G1Eoy+bq/RsnUzxBsEgenDpTWr4ZPXZgXx06GfH+Naj3L9TRinr/vj2Ax1GnOo7cvYOOVp/l70RsX4M6juaq4yhZ+7+Jk2SGPn5OfJRy1XlffWVoiJSyad5jFQCAfEYAzLlL8s7HXeo6uVoa5+vSu+jOX9wOve4MvTBSKucvk+a/+559U2HMGa+v5cc/yVL7wUvS9PNW+1f6YhUCHzbrUjdrYPjuD8Tvvb7MnsjwEimFqoW5dOilnbLlhLsKWyze8NOxa5+0JF1Ghb8T+2Vzgm7praEkzHSksunuC3o9pEOsYSfcusW/LcEYaH15Hw5/ZG2nd5tiO33qgDwV1CFQD6w+J9xZylwV/qweNIPyVC6rR+ba+SNmnEG9f1XSPNfdAcwceXZyqfjUn/s+xmEEv3r/Ev0WlELvmrl0aLs6jt5P4Ti6J/GPCE7PvFZvvhlJ5YcKAADyAwGwH3S0/jJ0QZ+88xd7UPe1+1rF77lu6pJA+2uy9ofbsjtkw+W3ZLUeZL7dPWh8l/j9al2v/ER2dSUfTD4zOrzstMeriwgggaAKLXs+ylobx8xcVkGsSdau22+FunBVNsXavv3qb5Hji6l9UsvoDl+sZTz7pe+3y5Z1O2W1a7iG2Npko3kON+t1OR75fuhhJ8y4f5Hr0+MCrmuSjYcTfWD68j60ya49ahtLp8vK+uQX16+2HrAHRbcLA41e6QgekyX7jwy9tn8RdMi95+Ax2a6Cruf97TWDw6t9tMcSzCY9LqB6/5rU+xcRBAOX1Pt3cBAcR9vVcfSC+jyrIOg5jqztU5/RF9Rx9Hqiz2iF1C8sVsfdcdl12MxKQccuf5IfRwAAyE9f+vrc2j+Y6ZzouhL9xT5hgk/OnetrCzYAA69EGtbr6q16YP2m+CWNEaZMnSfNut2f7jillV49EF/NqkZpnJbe58tj1gJpXl4ugT07GRAeAACFEkAAfXBZml4+LgE9tuEzC2J3JhTD6VNn7I5hSqukpXrckB4cHbnjtKsN7ElQjTkJe/iIbjn6LuEPAACNAAigb862ympdhdTpMdXMTuyCrNTVQdWUT4XA8ADq8/q5J00MVjr8bdBVP0/sz7zkbmK1rLSew59xgAQAYLghAALou8N7ZfU6XRKopNrb4vkjsti0mQNi0e1Yl7yUSccvJSpALpBNz0yXMt32NqPnAABgeKINIABgmKmQNTtqpVT3uJu00yUAAPILARAAAAAA8gRVQAEAAAAgTxAAAQAAACBPEAABAAAAIE8QAAEAAAAgTxAAAQAAACBPEAABAAAAIE8QAAEAAAAgTxAAgcFo1gLZtKNRmtVt06pq8ZnZGEATq2XT+gVSY+4CyLFKdR78gToPqtumZYPrPOirb1Dn5gpzDwCGFgaCH7ZGS8Mjy2RxsUjA/5qsbn3fzE+H8xxd0vLjbdIU/VZmUYk0rH9IFpeauyf2y5KX2sydfFMha3bUSqW5pwX27JTVu3L6BuRIxPsaYcjslw7ky8ulLNguW17eK4fOmvnoJ0XyWO0cWVYo0nHmmCw+dcHMH27U8fJddbyMNnffV+fB7Xl8HvxBxHnwoDpfvD44zhc6AG5YqL5g8/q7CsBQRQAcrkpmy6aHq6XMuvOBbPnhT+SQNZ2OYRQA1QV8s7qAt+TiC9v9/KmKux2DPwD6ZlVL/aJyqSxVF0BGQIWjo68dlXcOX5bw0T3AATAb77su+XtmujqWVPhbqsKfmR3LlPFTZcXkUpldqJKKpVfeOnNGtqrActrMCQuHGq9e6ej9XN4881t58XyPmZdtZt3SJkv2n4qxbX01TjZ/s0pmm3upeOvYbll53tyJVDRVWuZWmBKgoDz10yPyqjU93OQ4AFaq46HBHA/9ES77tL7BHQA1JwQO3R/oAOQrqoAOV5dPy9FuezLgP5NB+MPAaZNd29olYO5J8LhsHjQXFzrQNcqG5dM94U8rKy2Xxcsfkg3rF0jDRDNzyFP7+6gOf93Ssi5x+Huwep40V1W4wp9WKLMnV0lz7Ux50MxJrlB8haWyrGqOvFc7VaaYuXmtp1Pe7LUnO850DtPwBy91HmxynQcvqfPgIAp/WseuJtlyQp37Fs4fRuc8APmAADhsXZKmV74vS374/Qyrfw4vvrJbzNTQ0HF4r6xeukWW6NsTra4StYFVsyp+aV6ICoLjxpWYO5el6QmzH9Ztv/jNX/pDX993X/18a38De/ZJU4Jqn1OmzpNnS3Xw0yV+b8qSn+6We/Tt4DF5SwcXFeiejRvmdImWeby1zJvy1Jmg/Z4XVqjwOBRD4AVZ6d4n6/ambLdCXK9sPxj5twSlf5YeeXG//bjhW/0z93xj+vc82Nf1dfjVefAf1HlD3/5x8JwH3Q69pM9pxbL4UdpqAxg6CIDICxPKvKVVWacCWzjk2Le1e0wRrEVXH/T+fei1G6mQmdPMpBY8LmtD+7NT1upSy6BdrXPj4cHxS33f3vcKqddtfJKWwI6TFZPtUr+3jh2Qlad6wlUqe1QQ2q9CoJ5WYW7FeGtuYj098uqpI7L4YFsoBKa0XFoK5faoqqcY7iaMyfF5MEJ/r29gtMkufa4vnS71s8ysVEysljXrTUdf9c4PZgDQP2gDmAO+6uWyoXKk+Pd9XzbGvcZ32tfFbp/nq5gt9VXVUhn6/uySQPsvZfPr78f4FTTc4UssAf92Wd16ydyLZbRa33+TlVV3inO9HGhvld3vqsvWe78njeVZbgM4sUIa6ipl8TSzsmC3+F/bJxcWJWsDWCI19TOkbvotUhaj7VmTJ3SUSMOq+eF1JKPDTIySNp/a1vpHK2O2dfOuL1qokwBLgvZjoTZm8ejqh03eEijXMlb7k3cnhe+r126zfu3qF8jKheWheatjBM609i9iO/3btqigZ+6kzNu+MdW2M75Zal8WqX0JlT52q33yy+bdKiR5Suay875bTPvBpNs4fqa8V6U2rDdBezrnMcFjck+rU4LltAGM36ZNlyw263AZ77mLxsljUybLnNLCUOlDR28wdvtBtQ0tk0vFl0rw82ynS5z1/dNRtf1Jmys6+6tLAA/Ii3EfH69tpK3jzJuyWIXsSA9W18mzpfq1/K3cUV0ly5wSWR3Kz6vnjJpnLebVp/1L01h1Hvzv6jx4l/msXlLnwQPqPDgvWRtAdR58QJ0H/0ydB0e7jttL6rg9oI5bf8R5cJk6Hpx1JHNJHQ8xStp8alvrv63OE7lc31h1fvlOkvPgC+o82Gnuaq5lrPaB76nzoHNfvXab9Wv3gDp3zDXnQTVvdYx2iKnvXxzOuTGNdsY1qxqlMfSDWoxzPADkECWAOdDxYZvVbqGyanb8KiEqcNk9dP4iIhToMPc92TDfHf60kVJWvkg2/N1yacjqj4V2eNwwPxz+tLLyaml8eLnUZbvGkPVFWeu9QFfho3J5oqqF6oJnVYM073hIGnWgidP2LKpL7tu8j0uPvc4NalvjtXUbLF2Al5XNkDWuYFY2rVbqVy1Q4dO+6HHmrfH8Ot33/atc3iANs3L9y7UKjFabQ3f404qtfdrwTIPar4ht6NP7HlZTpTuv6Jaj7ya+AJxSeJP1f0egM35nKp/12he5pWPTaAsocrrTqQpaKJOsOQ4daObJe3PtUOM+zzjtBzfHKDVMKfzFocNovPU9O7dOWqYWmTkD6Sb5Wx0eraCn6TaYU9VrFTGvKrpNZr/unxVc1HnQHZRU+KhscIW/KOqYXabOgz9Q50EdaFxhRSsbrY5btfymZRHH7a19OR7sdW5Q2+oOR1pu1pe5sjHqPOgKkGV3qfPgMnUeNOHPmbfG3atMJvsXy9kP5WhQ/T/tDoaJATAkEABzwemApbhCvhbn+rhm0p3q3y45+qG3ZM5XvdiU5HWJf992qw2fdfvxa9Ji1SgcKYsf/lbEl0y4vZ/7ttbfZf4eX80DTsmhd31r1fr83Sp0ZvW7XF3Mu4JK6vQFePINiQ45mdNt3RqTlCJlc319Mq3c01OeVqnmRaqsCl/IZLR/Z1tl9wkzbSm2gmLzDns8LF/WO0EokYb1OqCauzHpHw9y0QFDiYy9Tf//qXQm+VV+0s12sDjbm6CIqOczsZ/mJrkjnRwR6vwkYrnxX7WCii6deurgm662dLr9oN1bSlTIOX/E9ThTLVWXLIbmuW6RpX/jZ9olkVYbx2OeZZYcs0Oqb3KVPJaVjBRu7+e+LTH7lZgKb1YJo17GtDksrFCvVcQ8KZX57oDcr/unzoMJS7riSfE8GBVyMlezTJ0nkpTmZXN9fXJXjPOgmhep8m7XeTBr+3dZ3jmuv6BvkbEpnosO7T4ufh0alWRtjAEg2wiAOaEC2bEP1P8qrN17lz3LrWS21FmFC23yjqf2zGxZWTlSTdhVLje2ucLh5fdVyNtuQuCdUlcd92fi1DnbEWN9HWp9G0Pryw5ffaX3C/rEftOGbKds8bSXi6a/LAPSLf49apl1TrszdVvn7VQkHHLcnY/slBbzRWvR1XSc5Z2buxrgxGqpc7V182/b6WrrtsVq6+aoXJSFhv8qWIU6fHFurnWkRO/TOv0aOXSVoi1WD3Uht420t7UP+2d1eOB+LS1OaZw9aH1NtsLYrBneUuHQ58XexvC+ujtg6MP77jFSxul1B7vlnD0jjiK5wyoA7JWPP7NmxKH+nkp+iatQbr/ZTGoqzC1RgWbxfl010R08dfvBA/KUtd9phs24iuSxyfYbYbdx9A5pcVpty2IVkvQ2zhmblRX2iR4n0K5e2iNvBOwX3T3vo8+tWS79u3++ByLOg++rz7XV0Yk6Dx5Mch78uTkPHlTLvKCXMbcXIs6DoZCjjod/dB6njgf37426eqmzvHNzV/8cq84Trq8vf5M6T7geu7bJdZ6Y5zr+Ml1fpzoPRv7dtY6U6HW8EHEeVK/TFnc/aLea82BG+5dMsYwbZyaTUef9jeZcxRASAPobATBX2s7YX8jlk6OqhPgmVVi//vqPveW9+Bw5yv5VuP2XcdrbOcFSpOz2KSl+ISWQdH3Z5e2Qo122vGQ6uVAXDYd27fNerEeyQlKTbHxXPc+9C2TN+gbZpBvQ6yqM5iEWJ+T0ge/ecJUhTVdP3bDDbqyvb7o6YkhpsUwwkwPJf6xNvUZdEnoJg+3yzlmRc4HoC8q+7V+bumjRgd0dwMLKpk2XxmcaslIiZ1fBdLg/L+qC/vBeb2lkabl8LeulgIPbaSf3FRXJg+OnyubqedJSO0/e+6ZuC6f/EBEaM1U0VuZYhWNtsjVeT53nO60SRV/Z2AHvsTRWSax73oefRSTxft4/b8co6nO93XUefF2dB72VQryskKTOg++p57lHnQe/q86D31XHra7CaB5icUJOH/juiThPNKjzxA/UusxtgzO+nzZ6kJwHT6rzYKfrPHhJnQc71XnwYozzYJb3ryPwqZkCgMGPAJgz78suqwrmnTLT04RgtHztdl3K94EciWgr7lOBTAt0fWL9H1PXFfvCu3hUn79wU1pf1jhV6oykJSsRJtptwXTg0+0Adbs1b5uw7Emv58jUq/zkTrdciOyv43dd3h8XXPq+fzqw28NUrN0WrsYUlo0u0ZN/Xg4dS7N0ICecEqVkYauvvW5GlzDqQec319bJe3PnyLN6/EHdds0zBmGW3KyeV/+vh6RQ4VIHzOhbeoO+Dyr9un/qc32rmdQupXkeHKvOgybw6XaAut1aWRYqg8SSXg+e6jwx1kwOGHUe/J2ZdHyS4Dw45PYPALKHAJhDMTuDidv5C+LTbQeTtQUbKMnbiA1tifev47CpxhRRFTefSuScEqWJhQmqBxbdLPbL8bl8FF1AFZ9TOhW5nG6zZg06r6Z7g1a7Nd0WcIlpD2hXAcXwotsO6s5KzN1BRZ0n3L1zDjvJ92+ojTULIL8RAHPp8luyWxdSuDqDidf5i1vZSPdPxBGcapvdV9L75TiBhOvLlTSqTka2HQzs2S9b1oXbrXnauaUiSTVRb7XJGOP3eW5xhnYYxPq2fyVSE6vnz7NtsjHddosJXZZO96/5MT4v3iqiKUirenCXXNAhKoXP6eleu1FZouqBU8aW2usOdsYc7iGe2MuNk816SAnple3HVODbf8Rqt6bbAp72tAdMQVTvojE4PZjqoSFcnaPEvMUbBmMwG8j9S6PqZGTbwcBBdR58IdxuzdPOLRVJqol6q02q84SrfVz0LYXzYBaqpWZT1vfPEqM2BgAMQgTAHDv0od0ZzIxJ+mfbu2SmvmaN7PzFcEoMpfwv4wz1MFoaqnSAVF/+H5+OW7UlVeH1RbdTtJTcKuPSqSWTkNNLmqNc6uorzAWBHpJgfoJhIFyC7bJ7V5scOntZ7X+J+GZ5OzSJLTJM6AF73S+wep6J4fsd77rbt5VL4/oFUuP6u/V4td41avuHor7sn9V7qO75M8YyDYvcgSy1ktGyhTNcncbo98FMKt4qnmo7dU+j5p4eF9Dzvps2j17pve9ezrIpVPE17cPiD9juGii+M42rw6KpsiHRcr1BeSNyrD9LkdxhppJLoaMYpyfS0slZ6gVzkOnX/VPnwd9EnAcfcJ0H9Rh6qZTwXVLnwdfVebDTnAcrvR2axKY+0+7a/qPV8VAZcTyMDd/veC/iPPFddcy7/m49Xq13jdr+2NJbX3/r+/65lcjXpusvy3RqhJhmDTt051lD87sEwNBFAMy1tl9YPWnqTltqKiZbv+BGdf7icEoMraEelsuaCteVQMldrsHeP5DdCQd2T5EzXIXcKY2PfEtqXN99vopvyaaHF3k7Fugjb/DQF/+1pvORxEMSeBrXl6ov6lCHJQ/JhuWpdace2V5Md3zidHpiPc+jk8K/TkcOd6DX+UzE49V6KxdW5mD4gX6Q4f7pge1DAxfHWMYd4AN7jsb5xbxNjnhKbPXzhJ9j5b2uD+Hho96OgXRPo2Z91riAZrb+1b3l5di9eab1vkewly2WGe5tiumCbA0NvTBPNk8tCpcEFo2TzbWm/ViiTkbcdKcuU2dKy1wTDILHYg9argLnhqnjXKWOar16sHdrHDwzK64Lss96bQtl2Yyp8qA7+Fidyrhn9MiLZ/SD1WPn6v1T6/QEJbO934weW29o6N/98wYPdR6cqz7XVscjiYck6LjoOg+OVsdNqMMS9TluSPE8eDLieGhQx4P7eb7tOh461XnCXaqo1/mdiMer9VbOVeeJOO3j0lpff8vC/oVMnCQz9DF34qOUa4RYNVvMcVo2bYh+lwAYsgiAOXdJ3vm4S11HVkvjfF16F935i9uh152hF0ZK5fxl0vx337NvKow54/W1/PgnKX/JJHZJmn7eal+MFKsQ+LBZl7pZA8N3fyB+7/d33+iePBNUEwy4L/bdIoOAR7f4T7h/UY8j4XMoEVX9Dr20U7Ykfd5UwsHglMn+deieWlN4rQMn9svmBN2aW0NJmOlIZdPdF4R6SIdYw064qfd/W4IxtNJ83z0Of2Rtp3ebYjttDb2gQ6AeeHxOuDORuSr8mXZ6T8WtPlgqz7o7HNGduky2q352BNtkSeSYfK7AqcemC3dcotZbpZdT67ICTWKvnja9T6ogqQc696y/6qtRYwja4/Dp/VPrdD9erdfaXvXn7Aw7MQD6c/90T54JhjcIxPttz68+y3F/91PHwfspnAcTPocSUSX10HZ1nkj6vOo8cU+c82Ca6+tvfd4/w+lZ2eqNOSND97sEwNBEAOwHHa2/DF3wJu/8xR7Ufe2+VvF7vpe6JND+mqz94bbsDtlw+S1ZrQeZb3cPGt8lfr9a1ys/kV1dyQeTT8vhvdZ4df6ga+eC7dKybaesfi3eRZEOApGBpdsKGmvXNcnG3d5f1GOzn8MaPy7i2jigtsW/56OINpWXVVBpUs+/3wo9nue3Hm+PRzh0x2/KZP/Ua6iW0R2+WMt4Xkd9v91qm7naNVxDbG2y0TyHm/U+HI/8vOlhJ8y4f5Hrc97/w4neg3Tfd7c22aXHpyydLivrk1+cvdp6wB403M5mRq8KccdkiR6vz8xJTi1jBnhf3Bo7NOrAGbUutYzTJvBVzzbE0XNKFh88Jm/1eh+s17392G+jtlev8x71+O0q6HreX7W8NXi6Wq891t7Q1K/751fnwRfUefCS6xi4pM6DTer4OZDgPPiPkYFFHQd6HMEX1HHw8xTPg+o59Bh3kUEzoLbFfzDGeXC7Ok+8oI5XtV7P81uP1+tW54nX4x2D6a6vv/V1/7QKqV9YrM6bx2XXYTMrBR27/El+3AKA3PnS1+fW/sFM50TXlegT54QJPjl3LvElIgAMvBJpWK+rt+qB9ZvilzRGmDJ1njTr9nu6Y5GoEjwAw0XNqkZpnJbe+cFj1gJpXl4ugT0q/DMgPIB+QgkgAMR1WZpePi4BKZbFzyyI3VlSDKdPnbE7himtkpZqdzs9AMOF0y46sCdBNfQk7OEjuuXou4Q/AP2HAAgAiZi2qwHdYY3u/dTMTuyCrNRVNNWUT4XAcDu9ecOzJ00gz+jwt0FX/TyxP/OSu4nVstJ6Dn/GARIAMkEABIBkDu+V1et0SaCSam99549Ybex0mzIAw49uh7zkpUw6filRAXKBbHpmupTpttMZPQcAZI42gAAAAP2mQtbsqJVS3WNy0k6zACD7CIAAAAAAkCeoAgoAAAAAeYIACAAAAAB5YkACINU/AQAAAKD/UQIIAAAAAHmCAAgAAAAAeYIACAAAAAB5ggAIAAAAAHmCAAgAAAAAeWJABoLXalY1SuM0c0e6JRD8VHa/vFcOnTWzAAAAAABZNUhKAIulrLRcGp9ZIDVmDgAAAAAguwasBNBjYoU0PFori0u7pWVdkzRRCggAAAAAWTc4SgDPtsk7x7vNHQAAAABALgyaTmA6Ap+aqTRMrJY16xuleUejbKovMTMBAAAAALEMmgDoK7vFTKWupm66VJba02UL50vDRHsaAAAAABBtkA0D8al00v4PAAAAAHJikAXA9BzafVz8QXs6sGcfnccAAAAAQAKDoxdQxVffIBsWFosEj8uWl1sZDxAAAAAAsmzQBECREqlZNV/qphVLmZkT2LNTVu9KdXkAAAAAQCKDrgqoE/4AAAAAANk1eEoAZy2Q5uXlIsF22fLyUTl0lpI/AAAAAMimQTYMRLe0vLyX8AcAAAAAOTDEh4GoCA8Ev6rCzAMAAAAAxDLIAuAtMjaNwdx99ZXhgeCnVTIQPAAAAAAkMKTHAfQqlhn3lphpAAAAAECkQRMAOwKfmqnUdezyhwaCBwAAAAAkNsg6gUlXm2x8Yoss2dZu7gMAAAAA4hkcAXBihdQvLDZ30uf0IHr0XXoPBQAAAIB4BiwA1qyye++0bs/USqWeGWyXd9LqBVSZWC0rdXg84ZemdJcFAAAAgDwySKqAdkvgxHHZ8nKrdJg5yZWIr36BbHpmupTpweNfajPzAQAAAACxfOnrc2v/YKZzoutKrqplVsiaHbVSemK/bFbhL/XgCAAAAAD5aQgHQAAAAABAOgZNL6AAAAAAgNwiAAIAAABAniAAAgAAAECeIAACAAAAQJ4gAAIAAABAniAAAgAAAECeIAACAAAAQJ4gAAIAAABAniAAAgAAAECeIAACAAAAQJ4gAAIAAABAniAAAgD+//brQAAAAIBh0P2pD7KyCACIEEAAAIAIAQQAAIgQQAAAgAgBBAAAiBBAAACACAEEAACIEEAAAIAIAQQAAIgQQAAAgAgBBAAAiBBAAACACAEEAABI2A7F4LX19pshkgAAAABJRU5ErkJggg==;" vertex="1" parent="1">
          <mxGeometry x="1170" y="870" width="896" height="542" as="geometry" />
        </mxCell>
      </root>
    </mxGraphModel>
  </diagram>
</mxfile>
